<!-- Generator: Adobe Illustrator 21.1.0, SVG Export Plug-In  -->
<svg version="1.1"
	 xmlns="http://www.w3.org/2000/svg" xmlns:xlink="http://www.w3.org/1999/xlink" xmlns:a="http://ns.adobe.com/AdobeSVGViewerExtensions/3.0/"
	 x="0px" y="0px" width="111.348px" height="38.963px" viewBox="0 0 111.348 38.963"
	 style="enable-background:new 0 0 111.348 38.963;" xml:space="preserve">
<style type="text/css">
	.st0{fill:#FFFFFF;}
</style>
<defs>
</defs>
<g>
	<g>
		<path class="st0" d="M0,38.284V0.566h22.902c7.804,0,11.197,5.202,11.197,9.613c0,4.693-2.771,7.86-6.447,8.651
			c4.072,0.622,7.182,4.354,7.182,9.218c0,5.259-3.562,10.235-11.14,10.235H0z M22.507,12.215c0-1.301-1.074-2.148-2.263-2.148
			h-8.821v4.41h8.821C21.433,14.477,22.507,13.572,22.507,12.215z M23.242,26.409c0-1.357-1.019-2.432-2.658-2.432h-9.161v4.807
			h9.161C22.224,28.784,23.242,27.822,23.242,26.409z"/>
		<path class="st0" d="M36.532,32.969l5.938-8.482c2.827,2.714,7.069,4.863,12.158,4.863c2.149,0,4.185-0.565,4.185-2.036
			c0-3.619-21.036,0.057-21.036-14.815C37.776,6.107,43.092,0,53.44,0c6.164,0,11.706,1.754,16.003,5.26l-6.107,8.086
			c-3.279-2.488-7.521-3.731-11.083-3.731c-2.262,0-2.884,0.734-2.884,1.696c0,3.562,20.979,0.509,20.979,14.533
			c0,8.312-6.164,13.119-16.286,13.119C46.032,38.963,40.547,36.588,36.532,32.969z"/>
		<path class="st0" d="M74.082,22.79V0.566h11.592v21.827c0,3.619,2.375,6.504,7.069,6.504c4.637,0,7.012-2.885,7.012-6.504V0.566
			h11.593v22.167c0,9.387-5.881,16.229-18.604,16.229S74.082,32.12,74.082,22.79z"/>
	</g>
</g>
</svg>