<!-- Generator: Adobe Illustrator 21.1.0, SVG Export Plug-In  -->
<svg version="1.1"
	 xmlns="http://www.w3.org/2000/svg" xmlns:xlink="http://www.w3.org/1999/xlink" xmlns:a="http://ns.adobe.com/AdobeSVGViewerExtensions/3.0/"
	 x="0px" y="0px" width="33.565px" height="33.565px" viewBox="0 0 33.565 33.565"
	 style="enable-background:new 0 0 33.565 33.565;" xml:space="preserve">
<style type="text/css">
	.st0{fill:#ABAAB0;}
	.st1{fill:#FFFFFF;}
</style>
<defs>
</defs>
<g id="XMLID_1_">
	<circle id="XMLID_3_" class="st0" cx="16.783" cy="16.782" r="16.782"/>
	<path id="XMLID_2_" class="st1" d="M26.72,11.663c-0.728,0.318-1.516,0.534-2.341,0.631c0.843-0.496,1.489-1.283,1.794-2.222
		c-0.788,0.46-1.661,0.796-2.591,0.976c-0.742-0.78-1.803-1.268-2.978-1.268c-2.25,0-4.078,1.798-4.078,4.014
		c0,0.315,0.037,0.621,0.105,0.915c-3.39-0.168-6.395-1.767-8.407-4.195c-0.348,0.593-0.552,1.284-0.552,2.019
		c0,1.392,0.722,2.621,1.817,3.341c-0.669-0.021-1.299-0.202-1.849-0.502c0,0.016,0,0.034,0,0.049c0,0.514,0.099,1.003,0.277,1.456
		c0.5,1.259,1.622,2.211,2.996,2.483c-0.344,0.089-0.706,0.142-1.077,0.142c-0.261,0-0.517-0.027-0.769-0.075
		c0.522,1.594,2.027,2.758,3.811,2.788c-1.397,1.079-3.152,1.72-5.067,1.72c-0.33,0-0.651-0.018-0.971-0.055
		c1.805,1.138,3.949,1.803,6.251,1.803c6.375,0,10.294-4.416,11.327-8.999c0.183-0.81,0.279-1.626,0.279-2.424
		c0-0.173-0.005-0.347-0.013-0.519C25.483,13.175,26.175,12.468,26.72,11.663z"/>
</g>
</svg>