<!-- Generator: Adobe Illustrator 21.1.0, SVG Export Plug-In  -->
<svg version="1.1"
	 xmlns="http://www.w3.org/2000/svg" xmlns:xlink="http://www.w3.org/1999/xlink" xmlns:a="http://ns.adobe.com/AdobeSVGViewerExtensions/3.0/"
	 x="0px" y="0px" width="64.773px" height="64.76px" viewBox="0 0 64.773 64.76" style="enable-background:new 0 0 64.773 64.76;"
	 xml:space="preserve">
<style type="text/css">
	.st0{fill:#FFFFFF;}
</style>
<defs>
</defs>
<path id="XMLID_1_" class="st0" d="M54.464,0c-5.686,0-10.296,4.611-10.296,10.296c0,5.181,3.846,9.429,8.833,10.155v10.452H42.522
	c-0.725-4.974-4.974-8.821-10.154-8.821c-5.181,0-9.416,3.834-10.142,8.808H10.309c-0.815,0-1.475,0.66-1.475,1.475v11.942
	C3.847,45.035,0,49.282,0,54.464C0,60.15,4.611,64.76,10.296,64.76c5.687,0,10.298-4.611,10.298-10.296
	c0-5.181-3.834-9.416-8.808-10.142V33.843h10.452c0.713,4.987,4.961,8.834,10.155,8.834c5.193,0,9.429-3.847,10.154-8.834H54.49
	c0.815,0,1.477-0.66,1.477-1.477V20.439c4.974-0.726,8.807-4.974,8.807-10.142C64.76,4.611,60.15,0,54.464,0 M17.68,54.438
	c0,4.066-3.29,7.357-7.357,7.357c-4.066,0-7.356-3.304-7.356-7.357c0-4.068,3.302-7.357,7.356-7.357
	C14.39,47.081,17.68,50.37,17.68,54.438 M32.407,39.724c-4.068,0-7.357-3.302-7.357-7.357c0-4.066,3.302-7.356,7.357-7.356
	c4.066,0,7.356,3.289,7.356,7.356C39.762,36.421,36.473,39.724,32.407,39.724 M54.49,17.641c-4.068,0-7.357-3.302-7.357-7.357
	c0-4.066,3.302-7.357,7.357-7.357c4.068,0,7.357,3.291,7.357,7.357C61.847,14.338,58.557,17.641,54.49,17.641"/>
</svg>