<!-- Generator: Adobe Illustrator 21.1.0, SVG Export Plug-In  -->
<svg version="1.1"
	 xmlns="http://www.w3.org/2000/svg" xmlns:xlink="http://www.w3.org/1999/xlink" xmlns:a="http://ns.adobe.com/AdobeSVGViewerExtensions/3.0/"
	 x="0px" y="0px" width="85.417px" height="63.148px" viewBox="0 0 85.417 63.148"
	 style="enable-background:new 0 0 85.417 63.148;" xml:space="preserve">
<style type="text/css">
	.st0{fill:#FFFFFF;}
</style>
<defs>
</defs>
<g id="XMLID_1_">
	<g id="XMLID_16_">
		<path id="XMLID_19_" class="st0" d="M61.133,48.484c0.617,6.692,6.54,11.616,13.233,10.999c6.693-0.617,11.616-6.54,10.999-13.233
			c-0.617-6.693-6.54-11.617-13.233-11c-2.38,0.219-4.537,1.11-6.299,2.467C62.638,40.178,60.735,44.171,61.133,48.484
			 M62.33,49.014c5.522,0.034,10.254,3.967,11.296,9.389C68.023,58.597,63.164,54.558,62.33,49.014 M84.279,46.825
			c0.142,2.862-0.824,5.541-2.535,7.601c-1.712,2.06-4.17,3.501-7.012,3.885c-1.104-6.037-6.376-10.419-12.513-10.4
			c-0.284-5.727,3.865-10.718,9.547-11.486C72.87,42.461,78.142,46.843,84.279,46.825 M84.168,45.72
			c-5.522-0.034-10.254-3.967-11.295-9.389C78.475,36.137,83.334,40.177,84.168,45.72"/>
		<polygon id="XMLID_18_" class="st0" points="81.856,55.693 65.019,39.623 65.019,38.684 81.856,54.754 		"/>
		<polygon id="XMLID_17_" class="st0" points="81.954,38.961 65.86,55.775 64.921,55.773 81.015,38.959 		"/>
	</g>
	<g id="XMLID_8_">
		<path id="XMLID_11_" class="st0" d="M13.286,35.251c-4.313-0.398-8.306,1.505-10.766,4.7c-1.358,1.763-2.248,3.919-2.467,6.299
			c-0.617,6.693,4.307,12.616,11,13.233c6.692,0.617,12.616-4.306,13.233-10.999C24.902,41.791,19.978,35.868,13.286,35.251
			 M13.815,36.448c5.544,0.834,9.583,5.693,9.389,11.296C17.782,46.702,13.849,41.97,13.815,36.448 M11.626,58.398
			c0.018-6.137-4.364-11.409-10.401-12.513c0.768-5.682,5.76-9.83,11.486-9.547c-0.018,6.137,4.364,11.409,10.4,12.513
			c-0.384,2.842-1.825,5.3-3.885,7.012C17.167,57.573,14.489,58.539,11.626,58.398 M10.522,58.286
			c-5.544-0.834-9.583-5.693-9.389-11.295C6.555,48.032,10.488,52.764,10.522,58.286"/>
		<polygon id="XMLID_10_" class="st0" points="20.494,55.974 4.425,39.137 3.485,39.137 19.555,55.974 		"/>
		<polygon id="XMLID_9_" class="st0" points="3.762,56.072 20.576,39.978 20.575,39.039 3.761,55.133 		"/>
	</g>
	<path id="XMLID_3_" class="st0" d="M77.336,6.131c-0.21-1.019-1.103-1.747-2.15-1.747H64.457V2.192C64.457,0.977,63.48,0,62.265,0
		H22.818c-1.215,0-2.194,0.977-2.194,2.192v2.192H10.232c-1.047,0-1.942,0.727-2.15,1.747c-0.069,0.322-1.536,8.004,2.737,13.242
		c2.459,3.004,6.203,4.582,11.134,4.721c2.806,8.296,9.875,14.442,18.381,15.365v15.266h-6.564c-1.215,0-2.194,0.979-2.194,2.194
		s0.98,2.192,2.194,2.192h17.725c1.215,0,2.192-0.977,2.192-2.192s-0.977-2.194-2.192-2.194H44.72V39.459
		c8.521-0.893,15.602-7.039,18.411-15.35c5.097-0.071,8.952-1.663,11.468-4.736C78.872,14.135,77.392,6.453,77.336,6.131
		 M14.228,16.607c-1.942-2.36-2.138-5.852-2.039-7.851h8.45v7.403c0,1.175,0.111,2.321,0.265,3.437
		C17.929,19.317,15.653,18.354,14.228,16.607 M60.07,16.174c0,10.491-7.863,19.024-17.515,19.024c-9.667,0-17.53-8.534-17.53-19.024
		V4.385H60.07V16.174z M71.19,16.607c-1.48,1.801-3.855,2.779-6.997,3.016c0.153-1.131,0.265-2.289,0.265-3.464V8.757h8.771
		C73.327,10.755,73.132,14.247,71.19,16.607"/>
	<path id="XMLID_2_" class="st0" d="M51.9,63.148H33.143c-0.928,0-1.687-0.759-1.687-1.687v0c0-0.928,0.759-1.688,1.687-1.688H51.9
		c0.928,0,1.688,0.759,1.688,1.688v0C53.588,62.389,52.829,63.148,51.9,63.148z"/>
</g>
</svg>