<!-- Generator: Adobe Illustrator 21.1.0, SVG Export Plug-In  -->
<svg version="1.1"
	 xmlns="http://www.w3.org/2000/svg" xmlns:xlink="http://www.w3.org/1999/xlink" xmlns:a="http://ns.adobe.com/AdobeSVGViewerExtensions/3.0/"
	 x="0px" y="0px" width="33.606px" height="33.61px" viewBox="0 0 33.606 33.61" style="enable-background:new 0 0 33.606 33.61;"
	 xml:space="preserve">
<style type="text/css">
	.st0{fill:#ABAAB0;}
	.st1{fill-rule:evenodd;clip-rule:evenodd;fill:#FFFFFF;}
</style>
<defs>
</defs>
<g id="XMLID_1_">
	<circle id="XMLID_9_" class="st0" cx="16.803" cy="16.806" r="16.804"/>
	<g id="XMLID_2_">
		<path id="XMLID_3_" class="st1" d="M22.688,16.807c0-3.253-2.635-5.886-5.885-5.886c-3.251,0-5.885,2.633-5.885,5.886
			c0,3.249,2.633,5.882,5.885,5.882C20.052,22.689,22.688,20.056,22.688,16.807L22.688,16.807z M22.576,10.12
			c-0.525,0-0.947,0.427-0.947,0.948c0,0.525,0.423,0.946,0.947,0.946c0.521,0,0.948-0.422,0.948-0.946
			C23.524,10.548,23.097,10.12,22.576,10.12L22.576,10.12z M11.994,8.761h9.618c1.782,0,3.236,1.457,3.236,3.233v9.622
			c0,1.781-1.453,3.233-3.236,3.233h-9.618c-1.78,0-3.235-1.452-3.235-3.233v-9.622C8.759,10.218,10.214,8.761,11.994,8.761
			L11.994,8.761z M21.612,7.683h-9.618c-2.371,0-4.313,1.941-4.313,4.311v9.622c0,2.374,1.943,4.313,4.313,4.313h9.618
			c2.375,0,4.313-1.939,4.313-4.313v-9.622C25.926,9.624,23.988,7.683,21.612,7.683L21.612,7.683z M12.142,16.807
			c0-2.576,2.088-4.665,4.661-4.665c2.576,0,4.662,2.089,4.662,4.665c0,2.572-2.085,4.661-4.662,4.661
			C14.23,21.468,12.142,19.379,12.142,16.807L12.142,16.807z"/>
	</g>
</g>
</svg>