<!-- Generator: Adobe Illustrator 21.1.0, SVG Export Plug-In  -->
<svg version="1.1"
	 xmlns="http://www.w3.org/2000/svg" xmlns:xlink="http://www.w3.org/1999/xlink" xmlns:a="http://ns.adobe.com/AdobeSVGViewerExtensions/3.0/"
	 x="0px" y="0px" width="344.263px" height="152.773px" viewBox="0 0 344.263 152.773"
	 style="enable-background:new 0 0 344.263 152.773;" xml:space="preserve">
<style type="text/css">
	.st0{fill:#ABAAAA;}
	.st1{fill:#434041;}
	.st2{fill:#FFFFFF;}
	.st3{fill:#1A1A1A;}
	.st4{fill:url(#XMLID_55_);}
	.st5{fill:url(#XMLID_56_);}
	.st6{fill:url(#XMLID_57_);}
	.st7{fill:url(#XMLID_58_);}
	.st8{fill:url(#XMLID_59_);}
	.st9{fill:url(#XMLID_60_);}
	.st10{fill:url(#XMLID_61_);}
	.st11{fill:url(#XMLID_62_);}
</style>
<defs>
</defs>
<g id="XMLID_1_">
	<g id="XMLID_23_">
		<path id="XMLID_51_" class="st0" d="M4.795,144.51v-28.57h9.475c6.33,0,9.497,2.537,9.497,7.613c0,0.797-0.105,1.539-0.316,2.226
			c-0.21,0.685-0.467,1.231-0.768,1.636c-0.302,0.406-0.597,0.76-0.885,1.061c-0.287,0.301-0.551,0.507-0.789,0.618l-0.295,0.209
			c0.141,0.029,0.313,0.085,0.517,0.169c0.203,0.083,0.586,0.313,1.149,0.688c0.562,0.375,1.051,0.803,1.466,1.282
			c0.415,0.481,0.795,1.161,1.14,2.044c0.344,0.884,0.517,1.853,0.517,2.91c0,5.41-3.455,8.115-10.364,8.115H4.795z M7.891,128.322
			h7.058c1.74,0,3.13-0.301,4.167-0.904c1.037-0.601,1.555-1.807,1.555-3.612c0-1.864-0.505-3.156-1.514-3.877
			c-1.009-0.72-2.544-1.083-4.604-1.083H7.891V128.322z M7.891,141.603h7.488c2.175,0,3.89-0.378,5.145-1.136
			c1.255-0.756,1.883-2.169,1.883-4.239c0-0.874-0.15-1.628-0.449-2.261c-0.3-0.631-0.666-1.124-1.098-1.479
			c-0.433-0.354-0.991-0.625-1.674-0.812c-0.683-0.189-1.317-0.31-1.902-0.366c-0.587-0.055-1.263-0.083-2.029-0.083H7.891V141.603z
			"/>
		<path id="XMLID_50_" class="st0" d="M30.795,135.517v-12.382h3.096v12.521c0,2.171,0.473,3.76,1.42,4.769
			c0.946,1.008,2.429,1.513,4.446,1.513c1.991,0,3.467-0.504,4.427-1.513c0.96-1.009,1.44-2.598,1.44-4.769v-12.521h3.096v12.382
			c0,2.971-0.781,5.268-2.34,6.892c-1.562,1.625-3.769,2.436-6.623,2.436c-2.853,0-5.06-0.812-6.621-2.436
			C31.574,140.785,30.795,138.487,30.795,135.517"/>
		<path id="XMLID_47_" class="st0" d="M55.726,115.94h3.43v3.43h-3.43V115.94z M55.894,144.511h3.096v-21.376h-3.096V144.511z"/>
		<rect id="XMLID_46_" x="66.038" y="114.998" class="st0" width="3.096" height="29.513"/>
		<path id="XMLID_43_" class="st0" d="M75.01,133.551c0-2.119,0.287-3.922,0.859-5.407c0.572-1.485,1.364-2.597,2.376-3.336
			c1.011-0.739,2.04-1.258,3.088-1.558c1.047-0.3,2.198-0.45,3.454-0.45c1.88,0,3.647,0.273,5.304,0.816v-8.617h3.095v23.133
			c0,0.572-0.083,1.158-0.251,1.757c-0.168,0.6-0.517,1.314-1.047,2.143c-0.531,0.83-1.439,1.506-2.722,2.028
			c-1.285,0.523-2.869,0.785-4.754,0.785c-0.795,0-1.574-0.07-2.335-0.209c-0.761-0.139-1.584-0.453-2.471-0.941
			c-0.886-0.489-1.65-1.123-2.292-1.904c-0.642-0.78-1.187-1.88-1.633-3.294C75.233,137.082,75.01,135.433,75.01,133.551
			 M78.106,133.551c0,1.799,0.195,3.304,0.584,4.518c0.39,1.213,0.925,2.084,1.608,2.614c0.682,0.531,1.336,0.886,1.962,1.067
			c0.627,0.181,1.344,0.273,2.151,0.273c3.786,0,5.679-1.255,5.679-3.766V126.69c-1.74-0.711-3.509-1.066-5.304-1.066
			c-2.338,0-4.036,0.627-5.093,1.882C78.634,128.761,78.106,130.776,78.106,133.551"/>
		<path id="XMLID_40_" class="st0" d="M99.503,115.94h3.43v3.43h-3.43V115.94z M99.671,144.511h3.096v-21.376h-3.096V144.511z"/>
		<path id="XMLID_39_" class="st0" d="M109.543,144.511v-19.662c2.805-1.393,5.821-2.09,9.045-2.09c2.689,0,4.774,0.683,6.257,2.05
			c1.484,1.366,2.226,3.29,2.226,5.773v13.93h-3.096v-13.93c0-0.599-0.063-1.134-0.189-1.6c-0.125-0.467-0.369-0.966-0.73-1.496
			c-0.363-0.529-0.946-0.938-1.754-1.224c-0.808-0.286-1.823-0.429-3.048-0.429c-1.796,0-3.668,0.286-5.616,0.857v17.821H109.543z"
			/>
		<path id="XMLID_36_" class="st0" d="M132.739,133.729c0-2.233,0.3-4.128,0.901-5.684c0.599-1.557,1.406-2.691,2.418-3.402
			c1.011-0.711,1.975-1.204,2.889-1.476c0.915-0.271,1.874-0.408,2.88-0.408c1.824,0,3.356,0.254,4.597,0.762
			c1.239,0.51,2.11,1.165,2.611,1.967c0.501,0.802,0.84,1.496,1.014,2.082c0.174,0.586,0.261,1.165,0.261,1.736v16.106
			c0,0.948-0.136,1.819-0.408,2.614c-0.272,0.795-0.721,1.571-1.347,2.331c-0.627,0.76-1.585,1.353-2.872,1.779
			c-1.288,0.424-2.845,0.638-4.669,0.638c-1.993,0-4.02-0.259-6.083-0.774v-2.908c1.826,0.516,3.741,0.773,5.75,0.773
			c1.363,0,2.508-0.122,3.433-0.364c0.926-0.244,1.597-0.591,2.015-1.043c0.418-0.453,0.703-0.901,0.856-1.346
			c0.153-0.446,0.23-0.981,0.23-1.606v-2.129c-1.601,0.52-3.271,0.779-5.011,0.779c-0.949,0-1.836-0.079-2.659-0.24
			c-0.823-0.16-1.664-0.478-2.523-0.952c-0.858-0.475-1.594-1.089-2.208-1.843c-0.615-0.754-1.114-1.759-1.497-3.014
			C132.931,136.849,132.739,135.39,132.739,133.729 M135.834,133.718c0,1.604,0.171,2.925,0.512,3.963s0.842,1.81,1.502,2.311
			c0.662,0.502,1.326,0.838,1.994,1.005c0.669,0.167,1.456,0.25,2.36,0.25c1.712,0,3.382-0.327,5.011-0.983v-11.085
			c0-2.398-1.796-3.598-5.387-3.598c-0.765,0-1.448,0.091-2.046,0.273c-0.598,0.181-1.224,0.529-1.879,1.046
			c-0.654,0.515-1.162,1.352-1.524,2.509C136.015,130.567,135.834,132.002,135.834,133.718"/>
		<path id="XMLID_35_" class="st0" d="M171.705,144.511v-19.702c2.751-1.367,5.605-2.05,8.566-2.05c2.339,0,4.22,0.585,5.641,1.756
			c2.748-1.171,5.393-1.756,7.933-1.756c2.597,0,4.611,0.683,6.043,2.05c1.431,1.366,2.146,3.29,2.146,5.773v13.93h-3.095v-13.93
			c0-0.599-0.056-1.134-0.167-1.6c-0.111-0.467-0.338-0.966-0.678-1.496c-0.342-0.529-0.891-0.938-1.65-1.224
			c-0.758-0.286-1.695-0.429-2.807-0.429c-1.797,0-3.769,0.355-5.914,1.067c0.464,1.031,0.695,2.259,0.695,3.682v13.93h-3.096
			v-13.93c0-0.628-0.058-1.175-0.177-1.642c-0.119-0.467-0.348-0.958-0.69-1.474c-0.341-0.516-0.901-0.918-1.68-1.203
			c-0.779-0.286-1.739-0.429-2.881-0.429c-1.74,0-3.437,0.259-5.093,0.773v17.905H171.705z"/>
		<path id="XMLID_34_" class="st0" d="M206.489,123.135h3.305l6.087,16.921l6.17-16.921h3.304l-8.743,23.468
			c-1.521,4.114-3.766,6.17-6.735,6.17c-0.684,0-1.353-0.126-2.009-0.377v-2.823c0.572,0.251,1.186,0.377,1.841,0.377
			c0.544,0,1.081-0.199,1.611-0.596c0.531-0.398,0.966-0.876,1.308-1.433c0.341-0.557,0.655-1.123,0.941-1.694
			c0.287-0.573,0.485-1.061,0.596-1.465l0.21-0.585L206.489,123.135z"/>
		<path id="XMLID_31_" class="st0" d="M243.72,133.729c0-2.233,0.3-4.128,0.9-5.684c0.6-1.557,1.406-2.691,2.418-3.402
			c1.012-0.711,1.975-1.204,2.89-1.476c0.914-0.271,1.874-0.408,2.878-0.408c1.824,0,3.357,0.254,4.596,0.762
			c1.239,0.51,2.11,1.165,2.612,1.967c0.5,0.802,0.839,1.496,1.013,2.082c0.173,0.586,0.26,1.165,0.26,1.736v16.106
			c0,0.948-0.135,1.819-0.406,2.614c-0.272,0.795-0.722,1.571-1.348,2.331c-0.627,0.76-1.585,1.353-2.872,1.779
			c-1.289,0.424-2.845,0.638-4.669,0.638c-1.992,0-4.021-0.259-6.083-0.774v-2.908c1.826,0.516,3.742,0.773,5.749,0.773
			c1.363,0,2.508-0.122,3.433-0.364c0.927-0.244,1.598-0.591,2.016-1.043c0.418-0.453,0.702-0.901,0.855-1.346
			c0.153-0.446,0.23-0.981,0.23-1.606v-2.129c-1.601,0.52-3.27,0.779-5.01,0.779c-0.95,0-1.836-0.079-2.659-0.24
			c-0.823-0.16-1.664-0.478-2.524-0.952c-0.857-0.475-1.594-1.089-2.208-1.843c-0.615-0.754-1.114-1.759-1.497-3.014
			C243.911,136.849,243.72,135.39,243.72,133.729 M246.816,133.718c0,1.604,0.17,2.925,0.51,3.963
			c0.342,1.039,0.842,1.81,1.504,2.311c0.66,0.502,1.325,0.838,1.993,1.005c0.668,0.167,1.456,0.25,2.36,0.25
			c1.712,0,3.382-0.327,5.01-0.983v-11.085c0-2.398-1.796-3.598-5.387-3.598c-0.766,0-1.447,0.091-2.045,0.273
			c-0.599,0.181-1.225,0.529-1.879,1.046c-0.654,0.515-1.163,1.352-1.524,2.509C246.995,130.567,246.816,132.002,246.816,133.718"/>
		<path id="XMLID_28_" class="st0" d="M266.246,137.943c0-0.96,0.178-1.822,0.533-2.583c0.357-0.762,0.792-1.379,1.308-1.853
			c0.515-0.474,1.17-0.878,1.965-1.215c0.795-0.336,1.498-0.583,2.112-0.741c0.613-0.158,1.342-0.279,2.186-0.36
			c0.844-0.083,1.444-0.13,1.799-0.145c0.356-0.013,0.778-0.021,1.266-0.021l3.43,0.203c0-1.939-0.526-3.324-1.576-4.153
			c-1.052-0.828-2.606-1.243-4.667-1.243c-2.313,0-4.397,0.343-6.251,1.025v-2.99c2.104-0.739,4.245-1.109,6.419-1.109
			c2.993,0,5.277,0.756,6.851,2.27c1.574,1.513,2.361,3.727,2.361,6.641v6.42c0,1.368-0.317,2.535-0.951,3.503
			c-0.634,0.97-1.448,1.67-2.444,2.102c-0.996,0.433-1.928,0.733-2.799,0.899c-0.871,0.168-1.731,0.251-2.58,0.251
			c-0.657,0-1.33-0.041-2.021-0.125s-1.472-0.276-2.345-0.576c-0.873-0.301-1.63-0.686-2.272-1.154
			c-0.642-0.469-1.19-1.14-1.644-2.014C266.472,140.101,266.246,139.09,266.246,137.943 M269.342,137.943
			c0,2.664,1.935,3.994,5.804,3.994h0.063c3.786,0,5.679-1.289,5.679-3.87v-4.098c-0.946-0.168-2.213-0.251-3.799-0.251
			C271.924,133.718,269.342,135.127,269.342,137.943"/>
		<path id="XMLID_27_" class="st0" d="M289.797,144.511v-19.702c2.751-1.367,5.605-2.05,8.566-2.05c2.339,0,4.22,0.585,5.64,1.756
			c2.749-1.171,5.393-1.756,7.933-1.756c2.597,0,4.611,0.683,6.043,2.05c1.431,1.366,2.146,3.29,2.146,5.773v13.93h-3.095v-13.93
			c0-0.599-0.056-1.134-0.167-1.6c-0.111-0.467-0.338-0.966-0.678-1.496c-0.342-0.529-0.891-0.938-1.65-1.224
			c-0.758-0.286-1.695-0.429-2.807-0.429c-1.797,0-3.769,0.355-5.914,1.067c0.464,1.031,0.695,2.259,0.695,3.682v13.93h-3.096
			v-13.93c0-0.628-0.058-1.175-0.177-1.642c-0.119-0.467-0.348-0.958-0.69-1.474c-0.341-0.516-0.901-0.918-1.68-1.203
			c-0.779-0.286-1.739-0.429-2.881-0.429c-1.74,0-3.437,0.259-5.093,0.773v17.905H289.797z"/>
		<path id="XMLID_24_" class="st0" d="M325.543,134.094v-0.147v-0.167c0-7.349,3.119-11.022,9.36-11.022
			c1.304,0,2.485,0.206,3.547,0.617c1.06,0.411,1.902,0.896,2.527,1.454c0.624,0.557,1.171,1.286,1.644,2.186
			c0.47,0.899,0.807,1.662,1.008,2.289c0.201,0.628,0.357,1.389,0.467,2.28c0.111,0.865,0.167,1.409,0.167,1.633v0.919l-0.083,1.507
			h-15.542c0.195,2.148,0.851,3.705,1.969,4.675c1.117,0.97,2.773,1.454,4.965,1.454c3.099,0,5.538-0.53,7.316-1.589v3.179
			c-2.057,0.99-4.551,1.485-7.484,1.485h-0.125c-1.251,0-2.398-0.15-3.441-0.449c-1.042-0.3-2.068-0.82-3.075-1.558
			c-1.008-0.739-1.797-1.851-2.368-3.336C325.827,138.017,325.543,136.214,325.543,134.094 M328.639,132.903h12.528
			c0-0.488-0.06-1.032-0.178-1.632c-0.119-0.599-0.356-1.37-0.713-2.312c-0.356-0.941-0.997-1.725-1.927-2.353
			c-0.929-0.627-2.078-0.941-3.447-0.941c-2.123,0-3.663,0.551-4.62,1.652C329.326,128.42,328.777,130.281,328.639,132.903"/>
	</g>
	<g id="XMLID_13_">
		<g>
			<path class="st1" d="M0.052,50.842C0.052,19.747,23.631,0,52.515,0c20.337,0,33.158,10.315,40.526,21.958L75.799,31.39
				c-4.568-6.927-12.968-12.821-23.284-12.821c-17.979,0-30.948,13.705-30.948,32.273s12.969,32.274,30.948,32.274
				c8.695,0,16.8-3.832,20.779-7.517V63.811H47.357V45.537h46.864v37.727C84.2,94.463,70.199,101.685,52.515,101.685
				C23.631,101.685,0.052,81.79,0.052,50.842z"/>
			<path class="st1" d="M131.064,99.916V28.589l-16.358,16.653l-11.937-12.526l30.948-31.095h18.273v98.295H131.064z"/>
			<path class="st1" d="M166.729,50.842c0-25.348,12.526-50.695,40.674-50.695s40.674,25.348,40.674,50.695
				s-12.526,50.843-40.674,50.843S166.729,76.189,166.729,50.842z M226.708,50.842c0-18.126-5.158-32.126-19.305-32.126
				c-14,0-19.306,14-19.306,32.126c0,18.127,5.306,32.274,19.306,32.274S226.708,68.969,226.708,50.842z"/>
			<path class="st1" d="M258.099,50.842c0-25.348,12.526-50.695,40.674-50.695s40.674,25.348,40.674,50.695
				s-12.526,50.843-40.674,50.843S258.099,76.189,258.099,50.842z M318.078,50.842c0-18.126-5.158-32.126-19.305-32.126
				c-14,0-19.306,14-19.306,32.126c0,18.127,5.306,32.274,19.306,32.274S318.078,68.969,318.078,50.842z"/>
		</g>
		<path id="XMLID_22_" class="st2" d="M54.317,2.131c14.517,0,25.181,5.184,32.788,12.346C79.407,6.299,68.154,0.13,52.316,0.13
			C23.579,0.13,0,19.877,0,50.972c0,15.463,5.887,28.204,15.363,37.082C7.07,79.306,2.001,67.314,2.001,52.973
			C2.001,21.878,25.58,2.131,54.317,2.131z"/>
		<polygon id="XMLID_21_" class="st2" points="135.666,3.752 151.938,3.752 151.938,1.751 133.665,1.751 102.717,32.846 
			114.654,45.372 114.702,45.324 104.719,34.847 		"/>
		<path id="XMLID_20_" class="st2" d="M209.352,2.278c10.535,0,18.899,3.59,25.236,9.417c-6.54-6.991-15.548-11.418-27.237-11.418
			c-28.147,0-40.674,25.348-40.674,50.695c0,15.851,4.899,31.758,15.452,41.454c-9.167-9.796-13.451-24.645-13.451-39.453
			C168.678,27.625,181.204,2.278,209.352,2.278z"/>
		<path id="XMLID_19_" class="st2" d="M300.722,2.278c10.535,0,18.899,3.59,25.236,9.417c-6.54-6.991-15.548-11.418-27.237-11.418
			c-28.147,0-40.674,25.348-40.674,50.695c0,15.851,4.899,31.758,15.452,41.454c-9.167-9.796-13.451-24.645-13.451-39.453
			C260.049,27.625,272.575,2.278,300.722,2.278z"/>
		<g id="XMLID_14_">
			<path id="XMLID_18_" class="st3" d="M92.077,81.595c-10.021,11.199-24.021,18.568-41.853,18.568
				c-14.379,0-27.465-5.018-36.954-13.909c9.604,10.132,23.534,15.91,38.955,15.91c17.832,0,31.832-7.369,41.853-18.568V45.87
				h-2.001V81.595z"/>
			<polygon id="XMLID_17_" class="st3" points="149.847,98.247 130.922,98.247 130.922,100.248 151.848,100.248 151.848,1.954 
				149.847,1.954 			"/>
			<path id="XMLID_16_" class="st3" d="M232.496,9.896c9.126,9.755,13.436,24.511,13.436,39.277
				c0,25.348-12.674,50.843-40.674,50.843c-10.546,0-18.899-3.58-25.222-9.389c6.525,6.973,15.519,11.39,27.223,11.39
				c28,0,40.674-25.495,40.674-50.843C247.934,35.364,243.002,19.555,232.496,9.896z"/>
			<path id="XMLID_15_" class="st3" d="M323.867,9.896c9.126,9.755,13.436,24.511,13.436,39.277
				c0,25.348-12.674,50.843-40.674,50.843c-10.546,0-18.899-3.58-25.222-9.389c6.525,6.973,15.519,11.39,27.223,11.39
				c28,0,40.674-25.495,40.674-50.843C339.305,35.364,334.372,19.555,323.867,9.896z"/>
		</g>
	</g>
	<g id="XMLID_2_">
		<linearGradient id="XMLID_55_" gradientUnits="userSpaceOnUse" x1="47.1167" y1="102.017" x2="47.1167" y2="0.185">
			<stop  offset="0" style="stop-color:#89878C"/>
			<stop  offset="0.0168" style="stop-color:#9B999E"/>
			<stop  offset="0.0693" style="stop-color:#D1D3D7"/>
			<stop  offset="0.1073" style="stop-color:#F4F5F6"/>
			<stop  offset="0.1266" style="stop-color:#FFFFFF"/>
			<stop  offset="0.2413" style="stop-color:#5C5B5F"/>
			<stop  offset="0.3066" style="stop-color:#7B7A7E"/>
			<stop  offset="0.3476" style="stop-color:#89878C"/>
			<stop  offset="0.407" style="stop-color:#6B6A6F"/>
			<stop  offset="0.4442" style="stop-color:#5C5B5F"/>
			<stop  offset="0.4851" style="stop-color:#7B7A7E"/>
			<stop  offset="0.5107" style="stop-color:#89878C"/>
			<stop  offset="0.5621" style="stop-color:#6B6A6F"/>
			<stop  offset="0.5944" style="stop-color:#5C5B5F"/>
			<stop  offset="0.6496" style="stop-color:#7B7A7E"/>
			<stop  offset="0.6842" style="stop-color:#89878C"/>
			<stop  offset="0.7716" style="stop-color:#6B6A6F"/>
			<stop  offset="0.8265" style="stop-color:#5C5B5F"/>
			<stop  offset="0.8615" style="stop-color:#9B999E"/>
			<stop  offset="0.8971" style="stop-color:#D1D2D7"/>
			<stop  offset="0.9228" style="stop-color:#F4F5F6"/>
			<stop  offset="0.9358" style="stop-color:#FFFFFF"/>
			<stop  offset="1" style="stop-color:#89878C"/>
		</linearGradient>
		<path id="XMLID_11_" class="st4" d="M0.032,51.027c0-31.095,23.579-50.842,52.316-50.842c20.484,0,33.306,10.315,40.674,21.958
			l-17.39,9.432c-4.421-6.927-12.821-12.821-23.284-12.821c-17.832,0-30.8,13.705-30.8,32.273s12.969,32.274,30.8,32.274
			c8.695,0,16.948-3.832,20.926-7.517V63.996H47.337V45.722h46.864v37.727C84.18,94.648,70.18,102.017,52.348,102.017
			C23.611,102.017,0.032,81.975,0.032,51.027z"/>
		<linearGradient id="XMLID_56_" gradientUnits="userSpaceOnUse" x1="127.3601" y1="100.101" x2="127.3601" y2="1.8061">
			<stop  offset="0" style="stop-color:#89878C"/>
			<stop  offset="0.0168" style="stop-color:#9B999E"/>
			<stop  offset="0.0693" style="stop-color:#D1D3D7"/>
			<stop  offset="0.1073" style="stop-color:#F4F5F6"/>
			<stop  offset="0.1266" style="stop-color:#FFFFFF"/>
			<stop  offset="0.2413" style="stop-color:#5C5B5F"/>
			<stop  offset="0.3066" style="stop-color:#7B7A7E"/>
			<stop  offset="0.3476" style="stop-color:#89878C"/>
			<stop  offset="0.407" style="stop-color:#6B6A6F"/>
			<stop  offset="0.4442" style="stop-color:#5C5B5F"/>
			<stop  offset="0.4851" style="stop-color:#7B7A7E"/>
			<stop  offset="0.5107" style="stop-color:#89878C"/>
			<stop  offset="0.5621" style="stop-color:#6B6A6F"/>
			<stop  offset="0.5944" style="stop-color:#5C5B5F"/>
			<stop  offset="0.6496" style="stop-color:#7B7A7E"/>
			<stop  offset="0.6842" style="stop-color:#89878C"/>
			<stop  offset="0.7716" style="stop-color:#6B6A6F"/>
			<stop  offset="0.8265" style="stop-color:#5C5B5F"/>
			<stop  offset="0.8615" style="stop-color:#9B999E"/>
			<stop  offset="0.8971" style="stop-color:#D1D2D7"/>
			<stop  offset="0.9228" style="stop-color:#F4F5F6"/>
			<stop  offset="0.9358" style="stop-color:#FFFFFF"/>
			<stop  offset="1" style="stop-color:#89878C"/>
		</linearGradient>
		<path id="XMLID_9_" class="st5" d="M131.044,100.101V28.774l-16.358,16.653l-11.937-12.526l30.948-31.095h18.273v98.295H131.044z"
			/>
		<linearGradient id="XMLID_57_" gradientUnits="userSpaceOnUse" x1="207.3828" y1="101.8696" x2="207.3828" y2="0.3315">
			<stop  offset="0" style="stop-color:#89878C"/>
			<stop  offset="0.0168" style="stop-color:#9B999E"/>
			<stop  offset="0.0693" style="stop-color:#D1D3D7"/>
			<stop  offset="0.1073" style="stop-color:#F4F5F6"/>
			<stop  offset="0.1266" style="stop-color:#FFFFFF"/>
			<stop  offset="0.2413" style="stop-color:#5C5B5F"/>
			<stop  offset="0.3066" style="stop-color:#7B7A7E"/>
			<stop  offset="0.3476" style="stop-color:#89878C"/>
			<stop  offset="0.407" style="stop-color:#6B6A6F"/>
			<stop  offset="0.4442" style="stop-color:#5C5B5F"/>
			<stop  offset="0.4851" style="stop-color:#7B7A7E"/>
			<stop  offset="0.5107" style="stop-color:#89878C"/>
			<stop  offset="0.5621" style="stop-color:#6B6A6F"/>
			<stop  offset="0.5944" style="stop-color:#5C5B5F"/>
			<stop  offset="0.6496" style="stop-color:#7B7A7E"/>
			<stop  offset="0.6842" style="stop-color:#89878C"/>
			<stop  offset="0.7716" style="stop-color:#6B6A6F"/>
			<stop  offset="0.8265" style="stop-color:#5C5B5F"/>
			<stop  offset="0.8615" style="stop-color:#9B999E"/>
			<stop  offset="0.8971" style="stop-color:#D1D2D7"/>
			<stop  offset="0.9228" style="stop-color:#F4F5F6"/>
			<stop  offset="0.9358" style="stop-color:#FFFFFF"/>
			<stop  offset="1" style="stop-color:#89878C"/>
		</linearGradient>
		<path id="XMLID_6_" class="st6" d="M166.709,51.027c0-25.348,12.526-50.695,40.674-50.695c28,0,40.674,25.348,40.674,50.695
			s-12.674,50.843-40.674,50.843C179.235,101.87,166.709,76.374,166.709,51.027z M226.688,51.027
			c0-18.126-5.305-32.126-19.305-32.126c-14.147,0-19.453,14-19.453,32.126c0,18.127,5.305,32.274,19.453,32.274
			C221.383,83.301,226.688,69.154,226.688,51.027z"/>
		<linearGradient id="XMLID_58_" gradientUnits="userSpaceOnUse" x1="298.7534" y1="101.8696" x2="298.7534" y2="0.3315">
			<stop  offset="0" style="stop-color:#89878C"/>
			<stop  offset="0.0168" style="stop-color:#9B999E"/>
			<stop  offset="0.0693" style="stop-color:#D1D3D7"/>
			<stop  offset="0.1073" style="stop-color:#F4F5F6"/>
			<stop  offset="0.1266" style="stop-color:#FFFFFF"/>
			<stop  offset="0.2413" style="stop-color:#5C5B5F"/>
			<stop  offset="0.3066" style="stop-color:#7B7A7E"/>
			<stop  offset="0.3476" style="stop-color:#89878C"/>
			<stop  offset="0.407" style="stop-color:#6B6A6F"/>
			<stop  offset="0.4442" style="stop-color:#5C5B5F"/>
			<stop  offset="0.4851" style="stop-color:#7B7A7E"/>
			<stop  offset="0.5107" style="stop-color:#89878C"/>
			<stop  offset="0.5621" style="stop-color:#6B6A6F"/>
			<stop  offset="0.5944" style="stop-color:#5C5B5F"/>
			<stop  offset="0.6496" style="stop-color:#7B7A7E"/>
			<stop  offset="0.6842" style="stop-color:#89878C"/>
			<stop  offset="0.7716" style="stop-color:#6B6A6F"/>
			<stop  offset="0.8265" style="stop-color:#5C5B5F"/>
			<stop  offset="0.8615" style="stop-color:#9B999E"/>
			<stop  offset="0.8971" style="stop-color:#D1D2D7"/>
			<stop  offset="0.9228" style="stop-color:#F4F5F6"/>
			<stop  offset="0.9358" style="stop-color:#FFFFFF"/>
			<stop  offset="1" style="stop-color:#89878C"/>
		</linearGradient>
		<path id="XMLID_3_" class="st7" d="M258.08,51.027c0-25.348,12.526-50.695,40.674-50.695c28,0,40.674,25.348,40.674,50.695
			s-12.674,50.843-40.674,50.843C270.606,101.87,258.08,76.374,258.08,51.027z M318.059,51.027c0-18.126-5.305-32.126-19.305-32.126
			c-14.147,0-19.453,14-19.453,32.126c0,18.127,5.305,32.274,19.453,32.274C312.753,83.301,318.059,69.154,318.059,51.027z"/>
	</g>
</g>
</svg>