<!-- Generator: Adobe Illustrator 21.1.0, SVG Export Plug-In  -->
<svg version="1.1"
	 xmlns="http://www.w3.org/2000/svg" xmlns:xlink="http://www.w3.org/1999/xlink" xmlns:a="http://ns.adobe.com/AdobeSVGViewerExtensions/3.0/"
	 x="0px" y="0px" width="370.478px" height="172.784px" viewBox="0 0 370.478 172.784"
	 style="enable-background:new 0 0 370.478 172.784;" xml:space="preserve">
<style type="text/css">
	.st0{fill:url(#XMLID_104_);}
	.st1{fill:url(#SVGID_7_);}
	.st2{fill:url(#XMLID_105_);}
	.st3{fill:url(#XMLID_106_);}
	.st4{fill:url(#XMLID_107_);}
	.st5{fill:url(#XMLID_108_);}
	.st6{fill:url(#XMLID_109_);}
	.st7{fill:url(#XMLID_110_);}
	.st8{fill:url(#XMLID_111_);}
	.st9{fill:url(#XMLID_112_);}
	.st10{filter:url(#Adobe_OpacityMaskFilter);}
	.st11{filter:url(#Adobe_OpacityMaskFilter_1_);}
	.st12{mask:url(#XMLID_113_);fill:url(#XMLID_114_);}
	.st13{fill:url(#XMLID_115_);}
	.st14{fill:url(#XMLID_116_);}
	.st15{fill:url(#XMLID_117_);}
	.st16{fill:url(#XMLID_118_);}
	.st17{fill:url(#XMLID_119_);}
	.st18{fill:url(#SVGID_8_);}
	.st19{fill:#ABAAAA;}
	.st20{fill:url(#XMLID_120_);}
	.st21{fill:url(#SVGID_9_);}
	.st22{fill:url(#XMLID_121_);}
	.st23{fill:url(#XMLID_122_);}
	.st24{fill:url(#XMLID_123_);}
	.st25{fill:url(#XMLID_124_);}
	.st26{fill:url(#XMLID_125_);}
	.st27{fill:url(#XMLID_126_);}
	.st28{fill:url(#XMLID_127_);}
	.st29{fill:url(#XMLID_128_);}
	.st30{filter:url(#Adobe_OpacityMaskFilter_2_);}
	.st31{filter:url(#Adobe_OpacityMaskFilter_3_);}
	.st32{mask:url(#XMLID_129_);fill:url(#XMLID_130_);}
	.st33{fill:url(#XMLID_131_);}
	.st34{fill:url(#XMLID_132_);}
	.st35{fill:url(#XMLID_133_);}
	.st36{fill:url(#XMLID_134_);}
	.st37{fill:url(#XMLID_135_);}
	.st38{fill:url(#SVGID_10_);}
</style>
<defs>
</defs>
<g id="XMLID_1_">
	<g id="XMLID_81_">
		<g id="XMLID_84_">
			<g id="XMLID_86_">
				
					<linearGradient id="XMLID_104_" gradientUnits="userSpaceOnUse" x1="58.6611" y1="1285.8138" x2="250.4736" y2="1285.8138" gradientTransform="matrix(1 0 0 1 66.9948 -1219.7523)">
					<stop  offset="0" style="stop-color:#3B872E"/>
					<stop  offset="1" style="stop-color:#8CAC2B"/>
				</linearGradient>
				<path id="XMLID_87_" class="st0" d="M207.481,16.16c0.822-6.44-3.771-9.662-8.777-9.662c-5.005-0.005-10.42,3.217-11.247,9.662
					c-1.768,13.852-3.637,27.694-5.565,41.537c-1.14,8.14-1.466,18.959-3.353,28.879c-4.22-12.469-5.613-28.068-7.617-38.637
					c-1.914-10.095-17.262-8.214-18.699,2.489c-1.342,10.035-2.782,19.996-4.523,29.925c-0.809-5.232-1.619-10.464-2.424-15.696
					c-2.163-13.976-4.213-27.98-6.624-41.887c0.221-1.01,0.173-2.12-0.244-3.273c-0.345-0.94-0.685-1.881-1.02-2.816
					c-2.374-6.55-12.318-1.729-11.705,4.706c2.107,22.315,5.039,44.469,7.675,66.668c1.267,10.639-1.405,31.281,9.484,36.614
					c4.436,2.171,11.098,0.705,13.053-5.08c2.29-6.785,4.235-13.612,5.934-20.467c2.515,6.564,5.85,12.372,10.448,16.636
					c4.289,3.983,11.402,3.78,15.458-1.964c8.899-12.593,9.567-26.703,11.792-40.998C202.457,53.922,205.065,35.05,207.481,16.16z
					 M309.298,15.287c-2.719,0-5.662,1.189-8.056,3.992c-5.349,6.287-13.097,12.501-19.16,19.388
					c-4.983-5.822-9.899-11.708-14.804-17.599c-4.549-5.467-12.673,2.434-8.955,8.035l1.475,2.226
					c0.182,0.267,0.371,0.502,0.574,0.71c4.564,6.546,9.117,13.105,13.56,19.738c-0.34,1.037-0.612,2.093-0.809,3.171
					c-3.481,19.416-1.361,40.928-2.005,60.321c-0.443,13.183,20.383,13.142,20.596,0c0.279-16.756,0.553-33.512,0.831-50.267
					c0.009-0.65,0.024-1.263,0.044-1.844c0.477-0.461,0.925-0.996,1.336-1.613c7.308-11.049,14.359-22.241,21.679-33.277
					C320.302,21.178,315.35,15.287,309.298,15.287z M252.283,87.221c0.009-0.064,0.026-0.122,0.033-0.187
					c0.209-1.836-0.249-3.604-1.152-5.092c-1.713-8.02-3.458-16.031-5.14-24.054c-2.605-12.409-3.756-25.883-12.674-34.954
					c-1.473-1.507-3.337-2.185-5.227-2.185c-4.006,0-8.12,3.056-8.883,7.762c-3.502,21.692-9.935,42.789-15.807,63.989
					c-0.158,0.404-0.273,0.815-0.337,1.225c-2.475,8.974-4.842,17.968-6.828,27.037c-0.843,3.835,5.154,5.499,7.148,1.996
					c4.77-8.387,8.609-17.177,11.902-26.174c2.617-0.281,5.233-0.548,7.85-0.806c2.238-0.222,7.03-1.214,10.717-1.379
					c1.387,8.059,2.827,16.102,4.461,24.081c2.403,11.708,21.237,6.827,19.103-5.107C255.886,104.614,254.114,95.909,252.283,87.221
					z M222.914,83.942c-1.225,0.325-2.441,0.677-3.653,1.037c3.082-9.768,5.711-19.685,8.326-29.529
					c0.993,5.918,1.672,11.939,2.659,17.631c0.523,3.015,1.034,6.035,1.547,9.055C228.682,82.816,225.483,83.259,222.914,83.942z"/>
			</g>
		</g>
		
			<linearGradient id="SVGID_7_" gradientUnits="userSpaceOnUse" x1="218.4226" y1="62.762" x2="290.0293" y2="62.762" gradientTransform="matrix(1 0 -0.114 1 87.5925 0)">
			<stop  offset="0" style="stop-color:#3B872E"/>
			<stop  offset="1" style="stop-color:#8CAC2B"/>
		</linearGradient>
		<path id="SVGID_4_" class="st1" d="M340.731,31.161c-1.652,10.039-3.043,20.078-4.188,30.118
			c-7.579,1.813-15.214,3.274-22.026,3.44C322.518,53.009,331.381,41.927,340.731,31.161 M344.999,8
			c-0.591,2.885-1.158,5.77-1.705,8.654c-0.748,0.19-1.525,0.639-2.275,1.401c-15.145,15.408-28.525,31.935-41.769,48.906
			c-2.56,3.282-0.885,7.932,2.607,8.908c9.857,2.75,21.561,1.54,33.257-0.671c-1.274,13.96-2.084,27.915-2.449,41.879
			c-0.294,11.242,17.431,11.281,17.634,0c0.278-15.241,1.123-30.451,2.507-45.657c4.042-0.889,7.961-1.71,11.669-2.325
			c8.3-1.381,7.159-11.837,1.629-14.289c-8.798-3.897-4.427-38.296-4.508-46.807c-0.047-5.293-3.695-8-7.592-8
			C350.168,0,346.099,2.627,344.999,8"/>
	</g>
	<g id="XMLID_57_">
		<linearGradient id="XMLID_105_" gradientUnits="userSpaceOnUse" x1="92.7061" y1="33.1877" x2="76.3822" y2="104.1467">
			<stop  offset="0.103" style="stop-color:#005125"/>
			<stop  offset="0.3818" style="stop-color:#00612E"/>
			<stop  offset="0.5212" style="stop-color:#00833A"/>
			<stop  offset="1" style="stop-color:#004D23"/>
		</linearGradient>
		<path id="XMLID_80_" class="st2" d="M94.91,76.85c-7.203,2.091-13.206,2.268-18.085,1.172
			c-4.086,10.745-12.981,11.91-20.017,7.738c1.541,1.746,3.269,3.48,5.23,5.186c14.19,12.359,39.195,4.702,42.848-7.228
			C105.866,77.201,99.851,80.412,94.91,76.85z"/>
		<linearGradient id="XMLID_106_" gradientUnits="userSpaceOnUse" x1="92.538" y1="33.1493" x2="76.2142" y2="104.1081">
			<stop  offset="0.103" style="stop-color:#005125"/>
			<stop  offset="0.3818" style="stop-color:#00612E"/>
			<stop  offset="0.5212" style="stop-color:#00833A"/>
			<stop  offset="1" style="stop-color:#004D23"/>
		</linearGradient>
		<path id="XMLID_79_" class="st3" d="M89.609,66.142c-2.149-6.455-2.144-14.079,7.319-17.665c1.034,2.781,1.417,5.617,1.158,8.184
			c0.654-6.471-2.758-14.65-10.392-19.314c-2.439-1.49-6-1.043-7.232,2.379c-0.818,2.28-1.207,5.435-2.385,9.032
			c-2.129,6.497-2.047,17.491,9.995,17.491C89.118,66.249,90.079,66.083,89.609,66.142z"/>
		<linearGradient id="XMLID_107_" gradientUnits="userSpaceOnUse" x1="59.3561" y1="25.4991" x2="43.006" y2="96.5723">
			<stop  offset="0.103" style="stop-color:#005125"/>
			<stop  offset="0.3818" style="stop-color:#00612E"/>
			<stop  offset="0.5212" style="stop-color:#00833A"/>
			<stop  offset="1" style="stop-color:#004D23"/>
		</linearGradient>
		<path id="XMLID_78_" class="st4" d="M63.83,37.021c1.653-5.377,3.532-10.301,4.926-13.987c3.08-8.139-0.496-16.342-8.795-15.046
			c-6.663,1.041-10.805,8.113-3.012,19.662C58.574,30.059,61.09,33.27,63.83,37.021z"/>
		<linearGradient id="XMLID_108_" gradientUnits="userSpaceOnUse" x1="31.2177" y1="37.1554" x2="10.3409" y2="50.9251">
			<stop  offset="0.103" style="stop-color:#005125"/>
			<stop  offset="0.6242" style="stop-color:#00612E"/>
			<stop  offset="1" style="stop-color:#00833A"/>
		</linearGradient>
		<path id="XMLID_77_" class="st5" d="M22.968,51.435c9.151-0.312,12.298-11.194,8.755-15.963
			c-4.282-5.764-10.191-2.592-10.326-2.519C15.601,38.733,21.848,41.821,22.968,51.435z"/>
		<linearGradient id="XMLID_109_" gradientUnits="userSpaceOnUse" x1="57.99" y1="42.5951" x2="73.9001" y2="42.5951">
			<stop  offset="0.0848" style="stop-color:#009240"/>
			<stop  offset="0.2909" style="stop-color:#69A83A"/>
			<stop  offset="0.5939" style="stop-color:#CAD89B"/>
			<stop  offset="0.8242" style="stop-color:#009240"/>
		</linearGradient>
		<path id="XMLID_76_" class="st6" d="M60.095,57.458c0.026-11.852,5.553-26.207,8.662-34.424c2.998-7.924-0.68-13.024-3.252-14.358
			c-0.634-0.253-1.388-0.471-2.368-0.651c3.625,0.531,6.607,6.147,3.51,14.332c-3.109,8.217-8.63,22.572-8.657,34.425
			c-0.018,8.698,5.428,17.525,15.91,20.382C64.794,73.762,60.078,65.554,60.095,57.458z"/>
		<radialGradient id="XMLID_110_" cx="46.4063" cy="40.2835" r="75.1064" gradientUnits="userSpaceOnUse">
			<stop  offset="0.0121" style="stop-color:#69A83A"/>
			<stop  offset="0.36" style="stop-color:#67A73A"/>
			<stop  offset="0.5564" style="stop-color:#5DA33A"/>
			<stop  offset="0.7152" style="stop-color:#499D39"/>
			<stop  offset="0.8538" style="stop-color:#199339"/>
			<stop  offset="0.9781" style="stop-color:#00863A"/>
			<stop  offset="1" style="stop-color:#00833A"/>
		</radialGradient>
		<path id="XMLID_73_" class="st7" d="M115.445,52.862C98.539,32.43,73.761,11.549,65.255,8.557
			c2.573,1.12,6.599,6.293,3.502,14.478c-3.109,8.217-8.636,22.572-8.662,34.424c-0.031,14.674,16.267,33.436,54.252,10.49
			C119.179,63.816,119.461,57.718,115.445,52.862z M88.073,66.249c-12.042,0-12.124-10.993-9.995-17.491
			c1.178-3.596,1.567-6.752,2.385-9.032c1.231-3.423,4.793-3.87,7.232-2.379C101.714,45.912,101.468,66.249,88.073,66.249z"/>
		<linearGradient id="XMLID_111_" gradientUnits="userSpaceOnUse" x1="86.1177" y1="37.3671" x2="96.8886" y2="63.2407">
			<stop  offset="0.0485" style="stop-color:#00612E"/>
			<stop  offset="0.2545" style="stop-color:#009240"/>
			<stop  offset="0.4242" style="stop-color:#FFFFFF"/>
			<stop  offset="0.6667" style="stop-color:#69A83A"/>
			<stop  offset="0.9273" style="stop-color:#00833A"/>
		</linearGradient>
		<path id="XMLID_72_" class="st8" d="M87.695,37.347c-2.312-1.412-5.63-1.08-7.018,1.876c1.613-1.118,3.799-1.005,5.463,0.012
			c9.938,6.072,12.732,18.107,8.689,24.564C100.951,58.134,98.711,44.077,87.695,37.347z"/>
		<radialGradient id="XMLID_112_" cx="65.6765" cy="51.4069" r="62.7042" gradientUnits="userSpaceOnUse">
			<stop  offset="0.0121" style="stop-color:#69A83A"/>
			<stop  offset="0.36" style="stop-color:#67A73A"/>
			<stop  offset="0.5564" style="stop-color:#5DA33A"/>
			<stop  offset="0.7152" style="stop-color:#499D39"/>
			<stop  offset="0.8538" style="stop-color:#199339"/>
			<stop  offset="0.9781" style="stop-color:#00863A"/>
			<stop  offset="1" style="stop-color:#00833A"/>
		</radialGradient>
		<path id="XMLID_69_" class="st9" d="M62.037,90.946C44.112,75.334,44.529,57.589,48.027,46.096
			c3.498-11.494,4.664-19.988,0.666-25.319c-5.092-6.789-11.808-1.114-11.808-1.114S22.953,31.483,21.4,32.951
			c0.164-0.088,6.053-3.228,10.324,2.521c3.739,5.032,0.031,16.884-10.327,15.921c-5.17-0.48-11.993-3.762-18.606,1.469
			c-4.034,4.877-3.735,11.012,1.162,15.145c1.924,1.624,9.513,3.665,9.513,8.884c0,5.128,0,25.469,0,39.872
			c0,5.207,4.235,9.414,9.443,9.414h72.438c5.215,0,9.457-4.209,9.474-9.424c0.039-12.149,0.087-28.062,0.087-33.094
			C101.319,95.624,76.251,103.325,62.037,90.946z M54.675,110.836c-2.423,3.573-14.496,5.467-25.332-5.371
			c-8.802-8.804-8.285-26.11,3.304-24.583c7.046,0.929,3.308,6.028,18.178,18.861C56.57,104.702,56.308,108.43,54.675,110.836z"/>
		<defs>
			<filter id="Adobe_OpacityMaskFilter" filterUnits="userSpaceOnUse" x="60.095" y="8.557" width="58.139" height="70.133">
				<feFlood  style="flood-color:white;flood-opacity:1" result="back"/>
				<feBlend  in="SourceGraphic" in2="back" mode="normal"/>
			</filter>
		</defs>
		<mask maskUnits="userSpaceOnUse" x="60.095" y="8.557" width="58.139" height="70.133" id="XMLID_113_">
			<g id="XMLID_62_" class="st10">
				<defs>
					<filter id="Adobe_OpacityMaskFilter_1_" filterUnits="userSpaceOnUse" x="60.095" y="8.557" width="58.139" height="70.133">
						<feFlood  style="flood-color:white;flood-opacity:1" result="back"/>
						<feBlend  in="SourceGraphic" in2="back" mode="normal"/>
					</filter>
				</defs>
				<mask maskUnits="userSpaceOnUse" x="60.095" y="8.557" width="58.139" height="70.133" id="XMLID_113_">
					<g id="XMLID_64_" class="st11">
					</g>
				</mask>
				<radialGradient id="XMLID_114_" cx="62.4506" cy="76.9688" r="34.4575" gradientUnits="userSpaceOnUse">
					<stop  offset="0" style="stop-color:#FFFFFF"/>
					<stop  offset="0.0861" style="stop-color:#E2E2E2"/>
					<stop  offset="0.3409" style="stop-color:#939393"/>
					<stop  offset="0.5674" style="stop-color:#545454"/>
					<stop  offset="0.7574" style="stop-color:#262626"/>
					<stop  offset="0.9033" style="stop-color:#0A0A0A"/>
					<stop  offset="0.9879" style="stop-color:#000000"/>
				</radialGradient>
				<path id="XMLID_63_" class="st12" d="M115.445,52.862C98.539,32.43,73.761,11.549,65.255,8.557
					c2.573,1.12,6.599,6.293,3.502,14.478c-3.109,8.217-8.636,22.572-8.662,34.424c-0.031,14.674,16.267,33.436,54.252,10.49
					C119.179,63.816,119.461,57.718,115.445,52.862z M88.073,66.249c-12.042,0-12.124-10.993-9.995-17.491
					c1.178-3.596,1.567-6.752,2.385-9.032c1.231-3.423,4.793-3.87,7.232-2.379C101.714,45.912,101.468,66.249,88.073,66.249z"/>
			</g>
		</mask>
		<radialGradient id="XMLID_115_" cx="62.4506" cy="76.9688" r="34.4575" gradientUnits="userSpaceOnUse">
			<stop  offset="0" style="stop-color:#FFFFFF"/>
			<stop  offset="0.9879" style="stop-color:#FFFFFF"/>
		</radialGradient>
		<path id="XMLID_61_" class="st13" d="M115.445,52.862C98.539,32.43,73.761,11.549,65.255,8.557
			c2.573,1.12,6.599,6.293,3.502,14.478c-3.109,8.217-8.636,22.572-8.662,34.424c-0.031,14.674,16.267,33.436,54.252,10.49
			C119.179,63.816,119.461,57.718,115.445,52.862z M88.073,66.249c-12.042,0-12.124-10.993-9.995-17.491
			c1.178-3.596,1.567-6.752,2.385-9.032c1.231-3.423,4.793-3.87,7.232-2.379C101.714,45.912,101.468,66.249,88.073,66.249z"/>
		<linearGradient id="XMLID_116_" gradientUnits="userSpaceOnUse" x1="23.2813" y1="97.2072" x2="46.4736" y2="97.2072">
			<stop  offset="0.103" style="stop-color:#005125"/>
			<stop  offset="0.6242" style="stop-color:#00612E"/>
			<stop  offset="1" style="stop-color:#00833A"/>
		</linearGradient>
		<path id="XMLID_60_" class="st14" d="M35.822,110.474c-2.252-3.561-2.951-8.181,0.682-13.565c1.886-2.797,4.386-4.039,7.162-4.242
			l0.001,0.001c-6.612-7.707-5.451-11.051-11.02-11.785c-11.589-1.527-12.106,15.779-3.304,24.583
			c5.937,5.938,12.242,8.049,17.131,8.161C43.348,113.553,39.641,112.661,35.822,110.474z"/>
		
			<linearGradient id="XMLID_117_" gradientUnits="userSpaceOnUse" x1="-24.6097" y1="121.7154" x2="9.411" y2="121.7154" gradientTransform="matrix(0.9914 0.1307 -0.1307 0.9914 62.7675 -21.4706)">
			<stop  offset="0.0848" style="stop-color:#009240"/>
			<stop  offset="0.2909" style="stop-color:#69A83A"/>
			<stop  offset="0.5939" style="stop-color:#CAD89B"/>
			<stop  offset="0.8242" style="stop-color:#009240"/>
		</linearGradient>
		<path id="XMLID_59_" class="st15" d="M31.073,103.812c-6.25-6.251-7.796-16.781-4.022-21.82
			c-5.825,3.903-4.765,16.417,2.291,23.474c10.836,10.838,22.909,8.944,25.332,5.371c0.064-0.094,0.121-0.193,0.18-0.29
			C50.638,113.034,40.399,113.14,31.073,103.812z"/>
		<linearGradient id="XMLID_118_" gradientUnits="userSpaceOnUse" x1="18.4184" y1="23.4886" x2="26.2862" y2="56.9684">
			<stop  offset="0.0848" style="stop-color:#009240"/>
			<stop  offset="0.2909" style="stop-color:#69A83A"/>
			<stop  offset="0.5939" style="stop-color:#CAD89B"/>
			<stop  offset="0.8242" style="stop-color:#009240"/>
		</linearGradient>
		<path id="XMLID_58_" class="st16" d="M31.324,34.934c-2.995-3.448-6.998-3.575-9.945-1.968c-0.261,0.26-0.493,0.514-0.707,0.765
			c0.051-0.019,1.46-1.651,4.431-1.139c2.31,0.398,4.995,1.189,6.153,4.657c1.648,6.059-2.625,14.033-11.648,13.54
			c-1.944-0.106-4.221-0.583-5.987-0.695c-0.403-0.026,3.262,0.797,7.758,1.313C31.691,52.59,36.029,40.35,31.324,34.934z"/>
	</g>
	<g id="XMLID_34_">
		<g id="XMLID_37_">
			<g id="XMLID_39_">
				
					<radialGradient id="XMLID_119_" cx="154.5674" cy="1285.8138" r="79.8303" gradientTransform="matrix(1 0 0 1 66.9948 -1219.7523)" gradientUnits="userSpaceOnUse">
					<stop  offset="0.0121" style="stop-color:#69A83A"/>
					<stop  offset="0.36" style="stop-color:#67A73A"/>
					<stop  offset="0.5564" style="stop-color:#5DA33A"/>
					<stop  offset="0.7152" style="stop-color:#499D39"/>
					<stop  offset="0.8538" style="stop-color:#199339"/>
					<stop  offset="0.9781" style="stop-color:#00863A"/>
					<stop  offset="1" style="stop-color:#00833A"/>
				</radialGradient>
				<path id="XMLID_40_" class="st17" d="M207.481,16.16c0.822-6.44-3.771-9.662-8.777-9.662c-5.005-0.005-10.42,3.217-11.247,9.662
					c-1.768,13.852-3.637,27.694-5.565,41.537c-1.14,8.14-1.466,18.959-3.353,28.879c-4.22-12.469-5.613-28.068-7.617-38.637
					c-1.914-10.095-17.262-8.214-18.699,2.489c-1.342,10.035-2.782,19.996-4.523,29.925c-0.809-5.232-1.619-10.464-2.424-15.696
					c-2.163-13.976-4.213-27.98-6.624-41.887c0.221-1.01,0.173-2.12-0.244-3.273c-0.345-0.94-0.685-1.881-1.02-2.816
					c-2.374-6.55-12.318-1.729-11.705,4.706c2.107,22.315,5.039,44.469,7.675,66.668c1.267,10.639-1.405,31.281,9.484,36.614
					c4.436,2.171,11.098,0.705,13.053-5.08c2.29-6.785,4.235-13.612,5.934-20.467c2.515,6.564,5.85,12.372,10.448,16.636
					c4.289,3.983,11.402,3.78,15.458-1.964c8.899-12.593,9.567-26.703,11.792-40.998C202.457,53.922,205.065,35.05,207.481,16.16z
					 M309.298,15.287c-2.719,0-5.662,1.189-8.056,3.992c-5.349,6.287-13.097,12.501-19.16,19.388
					c-4.983-5.822-9.899-11.708-14.804-17.599c-4.549-5.467-12.673,2.434-8.955,8.035l1.475,2.226
					c0.182,0.267,0.371,0.502,0.574,0.71c4.564,6.546,9.117,13.105,13.56,19.738c-0.34,1.037-0.612,2.093-0.809,3.171
					c-3.481,19.416-1.361,40.928-2.005,60.321c-0.443,13.183,20.383,13.142,20.596,0c0.279-16.756,0.553-33.512,0.831-50.267
					c0.009-0.65,0.024-1.263,0.044-1.844c0.477-0.461,0.925-0.996,1.336-1.613c7.308-11.049,14.359-22.241,21.679-33.277
					C320.302,21.178,315.35,15.287,309.298,15.287z M252.283,87.221c0.009-0.064,0.026-0.122,0.033-0.187
					c0.209-1.836-0.249-3.604-1.152-5.092c-1.713-8.02-3.458-16.031-5.14-24.054c-2.605-12.409-3.756-25.883-12.674-34.954
					c-1.473-1.507-3.337-2.185-5.227-2.185c-4.006,0-8.12,3.056-8.883,7.762c-3.502,21.692-9.935,42.789-15.807,63.989
					c-0.158,0.404-0.273,0.815-0.337,1.225c-2.475,8.974-4.842,17.968-6.828,27.037c-0.843,3.835,5.154,5.499,7.148,1.996
					c4.77-8.387,8.609-17.177,11.902-26.174c2.617-0.281,5.233-0.548,7.85-0.806c2.238-0.222,7.03-1.214,10.717-1.379
					c1.387,8.059,2.827,16.102,4.461,24.081c2.403,11.708,21.237,6.827,19.103-5.107C255.886,104.614,254.114,95.909,252.283,87.221
					z M222.914,83.942c-1.225,0.325-2.441,0.677-3.653,1.037c3.082-9.768,5.711-19.685,8.326-29.529
					c0.993,5.918,1.672,11.939,2.659,17.631c0.523,3.015,1.034,6.035,1.547,9.055C228.682,82.816,225.483,83.259,222.914,83.942z"/>
			</g>
		</g>
		
			<radialGradient id="SVGID_8_" cx="254.2259" cy="62.762" r="51.0928" gradientTransform="matrix(1 0 -0.114 1 87.5925 0)" gradientUnits="userSpaceOnUse">
			<stop  offset="0.0121" style="stop-color:#69A83A"/>
			<stop  offset="0.36" style="stop-color:#67A73A"/>
			<stop  offset="0.5564" style="stop-color:#5DA33A"/>
			<stop  offset="0.7152" style="stop-color:#499D39"/>
			<stop  offset="0.8538" style="stop-color:#199339"/>
			<stop  offset="0.9781" style="stop-color:#00863A"/>
			<stop  offset="1" style="stop-color:#00833A"/>
		</radialGradient>
		<path id="SVGID_1_" class="st18" d="M340.731,31.161c-1.652,10.039-3.043,20.078-4.188,30.118
			c-7.579,1.813-15.214,3.274-22.026,3.44C322.518,53.009,331.381,41.927,340.731,31.161 M344.999,8
			c-0.591,2.885-1.158,5.77-1.705,8.654c-0.748,0.19-1.525,0.639-2.275,1.401c-15.145,15.408-28.525,31.935-41.769,48.906
			c-2.56,3.282-0.885,7.932,2.607,8.908c9.857,2.75,21.561,1.54,33.257-0.671c-1.274,13.96-2.084,27.915-2.449,41.879
			c-0.294,11.242,17.431,11.281,17.634,0c0.278-15.241,1.123-30.451,2.507-45.657c4.042-0.889,7.961-1.71,11.669-2.325
			c8.3-1.381,7.159-11.837,1.629-14.289c-8.798-3.897-4.427-38.296-4.508-46.807c-0.047-5.293-3.695-8-7.592-8
			C350.168,0,346.099,2.627,344.999,8"/>
	</g>
	<g id="XMLID_2_">
		<path id="XMLID_30_" class="st19" d="M14,164.522v-28.57h9.475c6.33,0,9.497,2.537,9.497,7.613c0,0.797-0.105,1.539-0.316,2.226
			c-0.21,0.685-0.467,1.231-0.768,1.636c-0.302,0.406-0.597,0.76-0.885,1.061c-0.287,0.301-0.551,0.507-0.789,0.618l-0.295,0.209
			c0.141,0.029,0.313,0.085,0.517,0.169c0.203,0.083,0.586,0.313,1.149,0.688c0.562,0.375,1.051,0.803,1.466,1.282
			c0.415,0.481,0.795,1.161,1.14,2.044c0.344,0.884,0.517,1.853,0.517,2.91c0,5.41-3.455,8.115-10.364,8.115H14z M17.095,148.333
			h7.058c1.74,0,3.13-0.301,4.167-0.904c1.037-0.601,1.555-1.807,1.555-3.612c0-1.864-0.505-3.156-1.514-3.877
			c-1.009-0.72-2.544-1.083-4.604-1.083h-6.662V148.333z M17.095,161.615h7.488c2.175,0,3.89-0.378,5.145-1.136
			c1.255-0.756,1.883-2.169,1.883-4.239c0-0.874-0.15-1.628-0.449-2.261c-0.3-0.631-0.666-1.124-1.098-1.479
			c-0.433-0.354-0.991-0.625-1.674-0.812c-0.683-0.189-1.317-0.31-1.902-0.366c-0.587-0.055-1.263-0.083-2.029-0.083h-7.363V161.615
			z"/>
		<path id="XMLID_29_" class="st19" d="M39.999,155.528v-12.382h3.096v12.521c0,2.171,0.473,3.76,1.42,4.769
			c0.946,1.008,2.429,1.513,4.446,1.513c1.991,0,3.467-0.504,4.427-1.513c0.96-1.009,1.44-2.598,1.44-4.769v-12.521h3.096v12.382
			c0,2.971-0.781,5.268-2.34,6.892c-1.562,1.625-3.769,2.436-6.623,2.436c-2.853,0-5.06-0.812-6.621-2.436
			C40.779,160.796,39.999,158.499,39.999,155.528"/>
		<path id="XMLID_26_" class="st19" d="M64.93,135.951h3.43v3.43h-3.43V135.951z M65.098,164.522h3.096v-21.376h-3.096V164.522z"/>
		<rect id="XMLID_25_" x="75.242" y="135.009" class="st19" width="3.096" height="29.513"/>
		<path id="XMLID_22_" class="st19" d="M84.215,153.562c0-2.119,0.287-3.922,0.859-5.407c0.572-1.485,1.364-2.597,2.376-3.336
			c1.011-0.739,2.04-1.258,3.088-1.558c1.047-0.3,2.198-0.45,3.454-0.45c1.88,0,3.647,0.273,5.304,0.816v-8.617h3.095v23.133
			c0,0.572-0.083,1.158-0.251,1.757c-0.168,0.6-0.517,1.314-1.047,2.143c-0.531,0.83-1.439,1.506-2.722,2.028
			c-1.285,0.523-2.869,0.785-4.754,0.785c-0.795,0-1.574-0.07-2.335-0.209c-0.761-0.139-1.584-0.453-2.471-0.941
			c-0.886-0.489-1.65-1.123-2.292-1.904c-0.642-0.78-1.187-1.88-1.633-3.294C84.438,157.093,84.215,155.444,84.215,153.562
			 M87.31,153.562c0,1.799,0.195,3.304,0.584,4.518c0.39,1.213,0.925,2.084,1.608,2.614c0.682,0.531,1.336,0.886,1.962,1.067
			c0.627,0.181,1.344,0.273,2.151,0.273c3.786,0,5.679-1.255,5.679-3.766v-11.566c-1.74-0.711-3.509-1.066-5.304-1.066
			c-2.338,0-4.036,0.627-5.093,1.882C87.839,148.772,87.31,150.787,87.31,153.562"/>
		<path id="XMLID_19_" class="st19" d="M108.707,135.951h3.43v3.43h-3.43V135.951z M108.876,164.522h3.096v-21.376h-3.096V164.522z"
			/>
		<path id="XMLID_18_" class="st19" d="M118.747,164.522V144.86c2.805-1.393,5.821-2.09,9.045-2.09c2.689,0,4.774,0.683,6.257,2.05
			c1.484,1.366,2.226,3.29,2.226,5.773v13.93h-3.096v-13.93c0-0.599-0.063-1.134-0.189-1.6c-0.125-0.467-0.369-0.966-0.73-1.496
			c-0.363-0.529-0.946-0.938-1.754-1.224c-0.808-0.286-1.823-0.429-3.048-0.429c-1.796,0-3.668,0.286-5.616,0.857v17.821H118.747z"
			/>
		<path id="XMLID_15_" class="st19" d="M141.943,153.74c0-2.233,0.3-4.128,0.901-5.684c0.599-1.557,1.406-2.691,2.418-3.402
			c1.011-0.711,1.975-1.204,2.889-1.476c0.915-0.271,1.874-0.408,2.88-0.408c1.824,0,3.356,0.254,4.597,0.762
			c1.239,0.51,2.11,1.165,2.611,1.967c0.501,0.802,0.84,1.496,1.014,2.082c0.174,0.586,0.261,1.165,0.261,1.736v16.106
			c0,0.948-0.136,1.819-0.408,2.614c-0.272,0.795-0.721,1.571-1.347,2.331c-0.627,0.76-1.585,1.353-2.872,1.779
			c-1.288,0.424-2.845,0.638-4.669,0.638c-1.993,0-4.02-0.259-6.083-0.774v-2.908c1.826,0.516,3.741,0.773,5.75,0.773
			c1.363,0,2.508-0.122,3.433-0.364c0.926-0.244,1.597-0.591,2.015-1.043c0.418-0.453,0.703-0.901,0.856-1.346
			c0.153-0.446,0.23-0.981,0.23-1.606v-2.129c-1.601,0.52-3.271,0.779-5.011,0.779c-0.949,0-1.836-0.079-2.659-0.24
			c-0.823-0.16-1.664-0.478-2.523-0.952c-0.858-0.475-1.594-1.089-2.208-1.843c-0.615-0.754-1.114-1.759-1.497-3.014
			C142.135,156.86,141.943,155.401,141.943,153.74 M145.039,153.729c0,1.604,0.171,2.925,0.512,3.963
			c0.341,1.039,0.842,1.81,1.502,2.311c0.662,0.502,1.326,0.838,1.994,1.005c0.669,0.167,1.456,0.25,2.36,0.25
			c1.712,0,3.382-0.327,5.011-0.983V149.19c0-2.398-1.796-3.598-5.387-3.598c-0.765,0-1.448,0.091-2.046,0.273
			c-0.598,0.181-1.224,0.529-1.879,1.046c-0.654,0.515-1.162,1.352-1.524,2.509C145.219,150.578,145.039,152.013,145.039,153.729"/>
		<path id="XMLID_14_" class="st19" d="M180.91,164.522v-19.702c2.751-1.367,5.605-2.05,8.566-2.05c2.339,0,4.22,0.585,5.641,1.756
			c2.748-1.171,5.393-1.756,7.933-1.756c2.597,0,4.611,0.683,6.043,2.05c1.431,1.366,2.146,3.29,2.146,5.773v13.93h-3.095v-13.93
			c0-0.599-0.056-1.134-0.167-1.6c-0.111-0.467-0.338-0.966-0.678-1.496c-0.342-0.529-0.891-0.938-1.65-1.224
			c-0.758-0.286-1.695-0.429-2.807-0.429c-1.797,0-3.769,0.355-5.914,1.067c0.464,1.031,0.695,2.259,0.695,3.682v13.93h-3.096
			v-13.93c0-0.628-0.058-1.175-0.177-1.642c-0.119-0.467-0.348-0.958-0.69-1.474c-0.341-0.516-0.901-0.918-1.68-1.203
			c-0.779-0.286-1.739-0.429-2.881-0.429c-1.74,0-3.437,0.259-5.093,0.773v17.905H180.91z"/>
		<path id="XMLID_13_" class="st19" d="M215.693,143.146h3.305l6.087,16.921l6.17-16.921h3.304l-8.743,23.467
			c-1.521,4.114-3.766,6.17-6.735,6.17c-0.684,0-1.353-0.126-2.009-0.377v-2.823c0.572,0.251,1.186,0.377,1.841,0.377
			c0.544,0,1.081-0.199,1.611-0.596c0.531-0.398,0.966-0.876,1.308-1.433c0.341-0.557,0.655-1.123,0.941-1.694
			c0.287-0.573,0.485-1.061,0.596-1.465l0.21-0.585L215.693,143.146z"/>
		<path id="XMLID_10_" class="st19" d="M252.924,153.74c0-2.233,0.3-4.128,0.9-5.684c0.6-1.557,1.406-2.691,2.418-3.402
			c1.012-0.711,1.975-1.204,2.89-1.476c0.914-0.271,1.874-0.408,2.878-0.408c1.824,0,3.357,0.254,4.596,0.762
			c1.239,0.51,2.11,1.165,2.612,1.967c0.501,0.802,0.839,1.496,1.014,2.082c0.173,0.586,0.26,1.165,0.26,1.736v16.106
			c0,0.948-0.135,1.819-0.406,2.614c-0.272,0.795-0.722,1.571-1.348,2.331c-0.627,0.76-1.585,1.353-2.872,1.779
			c-1.289,0.424-2.845,0.638-4.669,0.638c-1.992,0-4.021-0.259-6.083-0.774v-2.908c1.826,0.516,3.742,0.773,5.749,0.773
			c1.363,0,2.508-0.122,3.433-0.364c0.927-0.244,1.598-0.591,2.016-1.043c0.418-0.453,0.702-0.901,0.855-1.346
			c0.153-0.446,0.23-0.981,0.23-1.606v-2.129c-1.601,0.52-3.27,0.779-5.01,0.779c-0.95,0-1.836-0.079-2.659-0.24
			c-0.823-0.16-1.664-0.478-2.524-0.952c-0.857-0.475-1.594-1.089-2.208-1.843c-0.615-0.754-1.114-1.759-1.497-3.014
			C253.116,156.86,252.924,155.401,252.924,153.74 M256.02,153.729c0,1.604,0.17,2.925,0.51,3.963
			c0.342,1.039,0.842,1.81,1.504,2.311c0.66,0.502,1.325,0.838,1.993,1.005c0.668,0.167,1.456,0.25,2.36,0.25
			c1.712,0,3.382-0.327,5.01-0.983V149.19c0-2.398-1.796-3.598-5.387-3.598c-0.766,0-1.447,0.091-2.045,0.273
			c-0.599,0.181-1.225,0.529-1.879,1.046c-0.654,0.515-1.163,1.352-1.524,2.509C256.2,150.578,256.02,152.013,256.02,153.729"/>
		<path id="XMLID_7_" class="st19" d="M275.45,157.954c0-0.96,0.178-1.822,0.533-2.583c0.357-0.762,0.792-1.379,1.308-1.853
			c0.515-0.474,1.17-0.878,1.965-1.215c0.795-0.336,1.498-0.583,2.112-0.741c0.613-0.158,1.342-0.279,2.185-0.36
			c0.844-0.083,1.444-0.13,1.799-0.145c0.356-0.013,0.778-0.021,1.266-0.021l3.43,0.203c0-1.939-0.526-3.324-1.576-4.153
			c-1.052-0.828-2.606-1.243-4.667-1.243c-2.313,0-4.397,0.343-6.251,1.025v-2.99c2.104-0.739,4.245-1.109,6.419-1.109
			c2.993,0,5.277,0.756,6.851,2.27c1.574,1.513,2.361,3.727,2.361,6.641v6.42c0,1.368-0.317,2.535-0.951,3.503
			c-0.634,0.97-1.448,1.67-2.444,2.102c-0.996,0.433-1.928,0.733-2.799,0.899c-0.871,0.168-1.731,0.251-2.58,0.251
			c-0.657,0-1.33-0.041-2.021-0.125c-0.691-0.084-1.472-0.276-2.345-0.576c-0.873-0.301-1.63-0.686-2.272-1.154
			c-0.642-0.469-1.19-1.14-1.644-2.014C275.676,160.112,275.45,159.101,275.45,157.954 M278.546,157.954
			c0,2.664,1.935,3.994,5.804,3.994h0.063c3.786,0,5.679-1.289,5.679-3.87v-4.098c-0.946-0.168-2.213-0.251-3.799-0.251
			C281.128,153.729,278.546,155.138,278.546,157.954"/>
		<path id="XMLID_6_" class="st19" d="M299.001,164.522v-19.702c2.751-1.367,5.605-2.05,8.566-2.05c2.339,0,4.22,0.585,5.64,1.756
			c2.749-1.171,5.393-1.756,7.933-1.756c2.597,0,4.611,0.683,6.043,2.05c1.431,1.366,2.146,3.29,2.146,5.773v13.93h-3.095v-13.93
			c0-0.599-0.056-1.134-0.167-1.6c-0.111-0.467-0.338-0.966-0.678-1.496c-0.342-0.529-0.891-0.938-1.65-1.224
			c-0.758-0.286-1.695-0.429-2.807-0.429c-1.797,0-3.769,0.355-5.914,1.067c0.464,1.031,0.695,2.259,0.695,3.682v13.93h-3.096
			v-13.93c0-0.628-0.058-1.175-0.177-1.642c-0.119-0.467-0.348-0.958-0.69-1.474c-0.341-0.516-0.901-0.918-1.68-1.203
			c-0.779-0.286-1.739-0.429-2.881-0.429c-1.74,0-3.437,0.259-5.093,0.773v17.905H299.001z"/>
		<path id="XMLID_3_" class="st19" d="M334.747,154.106v-0.147v-0.167c0-7.349,3.119-11.022,9.36-11.022
			c1.304,0,2.485,0.206,3.547,0.617c1.06,0.411,1.902,0.896,2.527,1.454c0.624,0.557,1.171,1.286,1.644,2.186
			c0.47,0.898,0.807,1.662,1.008,2.289c0.201,0.628,0.357,1.389,0.467,2.28c0.111,0.865,0.167,1.409,0.167,1.633v0.919l-0.083,1.507
			h-15.542c0.195,2.148,0.851,3.705,1.969,4.675c1.117,0.97,2.773,1.454,4.965,1.454c3.099,0,5.538-0.53,7.316-1.589v3.179
			c-2.057,0.99-4.551,1.485-7.484,1.485h-0.125c-1.251,0-2.398-0.15-3.441-0.449c-1.042-0.3-2.068-0.82-3.075-1.558
			c-1.008-0.739-1.797-1.851-2.368-3.336C335.032,158.028,334.747,156.226,334.747,154.106 M337.843,152.914h12.528
			c0-0.488-0.06-1.032-0.178-1.632c-0.119-0.599-0.356-1.37-0.713-2.312c-0.356-0.941-0.997-1.725-1.927-2.353
			c-0.929-0.627-2.078-0.941-3.447-0.941c-2.123,0-3.663,0.551-4.62,1.652C338.531,148.431,337.982,150.292,337.843,152.914"/>
	</g>
</g>
</svg>