<!-- Generator: Adobe Illustrator 21.1.0, SVG Export Plug-In  -->
<svg version="1.1"
	 xmlns="http://www.w3.org/2000/svg" xmlns:xlink="http://www.w3.org/1999/xlink" xmlns:a="http://ns.adobe.com/AdobeSVGViewerExtensions/3.0/"
	 x="0px" y="0px" width="165.67px" height="33.61px" viewBox="0 0 165.67 33.61" style="enable-background:new 0 0 165.67 33.61;"
	 xml:space="preserve">
<style type="text/css">
	.st0{fill:#ABAAB0;}
	.st1{fill:#FFFFFF;}
	.st2{fill-rule:evenodd;clip-rule:evenodd;fill:#FFFFFF;}
</style>
<defs>
</defs>
<g id="XMLID_18_">
	<circle id="XMLID_20_" class="st0" cx="61.65" cy="16.805" r="16.782"/>
	<path id="XMLID_19_" class="st1" d="M63.128,12.829v-1.59c0-0.774,0.517-0.955,0.879-0.955c0.363,0,2.231,0,2.231,0V6.88
		l-3.072-0.014c-3.41,0-4.184,2.54-4.184,4.167v1.796h-1.971v2.403v1.574h1.988c0,4.506,0,9.939,0,9.939h3.975c0,0,0-5.489,0-9.939
		h2.951l0.143-1.562l0.22-2.414H63.128z"/>
</g>
<g id="XMLID_13_">
	<circle id="XMLID_17_" class="st0" cx="104.517" cy="16.805" r="16.782"/>
	<path id="XMLID_14_" class="st1" d="M114.257,12.66c0,0-0.193-1.429-0.788-2.057c-0.756-0.825-1.603-0.829-1.993-0.877
		c-2.783-0.208-6.955-0.208-6.955-0.208h-0.009c0,0-4.174,0-6.954,0.208c-0.39,0.048-1.236,0.053-1.993,0.877
		c-0.595,0.628-0.789,2.059-0.789,2.059s-0.198,1.674-0.198,3.354v0.202v1.37c0,1.679,0.198,3.356,0.198,3.356
		s0.195,1.43,0.789,2.057c0.757,0.825,1.752,0.799,2.192,0.884c1.591,0.16,6.76,0.211,6.76,0.211s4.176-0.009,6.959-0.218
		c0.39-0.048,1.237-0.053,1.993-0.877c0.595-0.628,0.788-2.057,0.788-2.057s0.199-1.677,0.199-3.356v-1.283v-0.288
		C114.456,14.337,114.257,12.66,114.257,12.66z M107.834,16.593l-5.368,2.9l-0.002-4.465V13.67l2.421,1.319L107.834,16.593z"/>
</g>
<g id="XMLID_10_">
	<circle id="XMLID_12_" class="st0" cx="16.783" cy="16.805" r="16.782"/>
	<path id="XMLID_11_" class="st1" d="M26.72,11.685c-0.728,0.318-1.516,0.534-2.341,0.631c0.843-0.496,1.489-1.283,1.794-2.222
		c-0.788,0.46-1.661,0.796-2.591,0.976c-0.742-0.78-1.803-1.268-2.978-1.268c-2.25,0-4.078,1.798-4.078,4.014
		c0,0.315,0.037,0.621,0.105,0.915c-3.39-0.168-6.395-1.767-8.407-4.195c-0.348,0.593-0.552,1.284-0.552,2.019
		c0,1.392,0.722,2.621,1.817,3.341c-0.669-0.021-1.299-0.202-1.849-0.502c0,0.016,0,0.034,0,0.049c0,0.514,0.099,1.003,0.277,1.456
		c0.5,1.259,1.622,2.211,2.996,2.483c-0.344,0.089-0.706,0.142-1.077,0.142c-0.261,0-0.517-0.027-0.769-0.075
		c0.522,1.594,2.027,2.758,3.811,2.788c-1.397,1.079-3.152,1.72-5.067,1.72c-0.33,0-0.651-0.018-0.971-0.055
		c1.805,1.138,3.949,1.803,6.251,1.803c6.375,0,10.294-4.416,11.327-8.999c0.183-0.81,0.279-1.626,0.279-2.424
		c0-0.173-0.005-0.347-0.013-0.519C25.483,13.197,26.175,12.49,26.72,11.685z"/>
</g>
<g id="XMLID_1_">
	<circle id="XMLID_9_" class="st0" cx="148.867" cy="16.806" r="16.804"/>
	<g id="XMLID_2_">
		<path id="XMLID_3_" class="st2" d="M154.752,16.807c0-3.253-2.635-5.886-5.885-5.886c-3.251,0-5.885,2.633-5.885,5.886
			c0,3.249,2.633,5.882,5.885,5.882C152.117,22.689,154.752,20.056,154.752,16.807L154.752,16.807z M154.64,10.12
			c-0.525,0-0.947,0.427-0.947,0.948c0,0.525,0.423,0.946,0.947,0.946c0.521,0,0.948-0.422,0.948-0.946
			C155.588,10.548,155.161,10.12,154.64,10.12L154.64,10.12z M144.058,8.761h9.618c1.782,0,3.236,1.457,3.236,3.233v9.622
			c0,1.781-1.453,3.233-3.236,3.233h-9.618c-1.78,0-3.235-1.452-3.235-3.233v-9.622C140.823,10.218,142.278,8.761,144.058,8.761
			L144.058,8.761z M153.676,7.683h-9.618c-2.371,0-4.313,1.941-4.313,4.311v9.622c0,2.374,1.943,4.313,4.313,4.313h9.618
			c2.375,0,4.313-1.939,4.313-4.313v-9.622C157.99,9.624,156.052,7.683,153.676,7.683L153.676,7.683z M144.206,16.807
			c0-2.576,2.088-4.665,4.661-4.665c2.576,0,4.662,2.089,4.662,4.665c0,2.572-2.085,4.661-4.662,4.661
			C146.294,21.468,144.206,19.379,144.206,16.807L144.206,16.807z"/>
	</g>
</g>
</svg>