<!-- Generator: Adobe Illustrator 21.1.0, SVG Export Plug-In  -->
<svg version="1.1"
	 xmlns="http://www.w3.org/2000/svg" xmlns:xlink="http://www.w3.org/1999/xlink" xmlns:a="http://ns.adobe.com/AdobeSVGViewerExtensions/3.0/"
	 x="0px" y="0px" width="286.442px" height="137.52px" viewBox="0 0 286.442 137.52"
	 style="enable-background:new 0 0 286.442 137.52;" xml:space="preserve">
<style type="text/css">
	.st0{fill:#A2A0A7;}
</style>
<defs>
</defs>
<g id="XMLID_1_">
	<g id="XMLID_3_">
		<g id="XMLID_4_">
			<path id="SVGID_1_" class="st0" d="M254.038,30.288c-0.494,9.758-0.733,19.516-0.733,29.274
				c-7.166,1.763-14.425,3.182-21.028,3.344C238.757,51.524,246.143,40.752,254.038,30.288 M255.619,7.776
				c-0.254,2.804-0.486,5.608-0.698,8.412c-0.706,0.185-1.411,0.621-2.056,1.361c-13.013,14.976-24.187,31.04-35.179,47.536
				c-2.125,3.19,0.019,7.71,3.521,8.659c9.885,2.673,21.128,1.496,32.251-0.652c0.309,13.569,1.068,27.133,2.26,40.706
				c0.96,10.927,18.193,10.965,17.14,0c-1.419-14.814-2.283-29.598-2.623-44.378c3.83-0.864,7.548-1.662,11.085-2.26
				c7.914-1.342,5.646-11.505,0-13.889c-8.983-3.787-8.547-37.223-9.569-45.496C271.12,2.63,267.275,0,263.487,0
				C259.758,0,256.093,2.553,255.619,7.776"/>
			<g id="XMLID_5_">
				<g id="XMLID_6_">
					<path id="XMLID_7_" class="st0" d="M132.02,32.201c-4.189-0.003-8.412,2.692-8.489,8.084
						c-0.158,11.59-0.401,23.172-0.694,34.754c-0.177,6.812,0.582,15.863-0.05,24.164c-4.721-10.433-7.374-23.485-10.059-32.329
						c-2.565-8.447-15.227-6.873-15.408,2.083c-0.166,8.396-0.42,16.731-0.929,25.039c-1.176-4.377-2.353-8.755-3.525-13.132
						c-3.143-11.694-6.194-23.412-9.538-35.048c0.089-0.845-0.058-1.774-0.517-2.738c-0.378-0.787-0.752-1.574-1.122-2.357
						c-2.611-5.48-10.472-1.446-9.345,3.938c3.892,18.671,8.458,37.208,12.782,55.783c2.075,8.901,1.809,26.173,11.428,30.635
						c3.919,1.816,9.353,0.59,10.437-4.25c1.269-5.677,2.245-11.389,3.012-17.125c2.731,5.492,6.075,10.352,10.329,13.919
						c3.969,3.333,9.901,3.163,12.747-1.643c6.244-10.537,5.458-22.343,5.955-34.303c0.652-15.794,1.034-31.584,1.254-47.39
						C140.359,34.897,136.209,32.201,132.02,32.201z M225.959,36.714c3.255-5.932-1.45-10.861-6.514-10.861
						c-2.275,0-4.624,0.995-6.36,3.34c-3.876,5.261-9.766,10.46-14.182,16.222c-4.725-4.871-9.399-9.796-14.066-14.726
						c-4.327-4.574-10.371,2.037-6.727,6.723l1.446,1.863c0.177,0.224,0.359,0.42,0.548,0.594
						c4.443,5.477,8.878,10.965,13.229,16.515c-0.185,0.868-0.312,1.751-0.374,2.653c-1.06,16.246,2.766,34.246,4.077,50.472
						c0.887,11.031,18.309,10.996,17.233,0c-1.365-14.02-2.734-28.04-4.1-42.06c-0.054-0.544-0.1-1.057-0.139-1.543
						c0.355-0.385,0.679-0.833,0.964-1.35C216.055,55.312,220.888,45.947,225.959,36.714z M63.499,72.907
						c-9.519-0.104-6.36-7.004-6.591-14.278c-0.181-5.673-1.678-10.209-3.888-15.4c-0.895-2.099-2.746-2.997-4.698-2.997
						c-3.247,0-6.761,2.484-6.576,6.048c0.393,7.436,0.698,14.868,0.922,22.304c-0.204,2.522-0.239,4.968,0.189,7.205
						c0.004,0.208,0.008,0.417,0.012,0.629c-3.706,0.583-7.413,1.13-11.131,1.651c-0.212-6.245-0.633-12.5-1.427-18.775
						c-0.332-2.654-4.25-2.839-4.281,0c-0.069,6.429-0.027,12.971-0.05,19.55c-0.517,0.066-1.037,0.135-1.558,0.201
						c-5.758,0.548-11.501,1.2-17.248,1.963c-7.274,0.968-7.602,12.45,0,11.706c5.276-0.517,10.541-1.095,15.794-1.739
						c-0.116,2.291-0.231,4.582-0.347,6.869c-3.76,1.064-7.49,2.221-11.162,3.34c-2.399,0.679-4.79,1.385-7.182,2.114
						c-7.479,2.287-4.351,13.912,3.247,11.768c1.67-0.471,3.379-0.988,5.11-1.52c3.105-0.906,6.213-1.778,9.334-2.615
						c-0.328,6.611-0.656,13.225-0.98,19.836c-0.355,7.166,11.494,7.186,11.143,0c0.451-7.579,0.906-15.154,1.354-22.732
						c2.542-0.598,5.083-1.165,7.637-1.701c0.309,8.462,0.779,16.901,1.419,25.352c0.582,7.698,11.829,7.868,12.095,0
						c0.316-9.326,0.501-18.648,0.552-27.966c2.484-0.397,4.975-0.764,7.471-1.092c9.056-1.199,7.479-14.062-1.685-12.473
						c-1.936,0.335-3.865,0.679-5.793,1.03c-0.012-1.655-0.027-3.313-0.046-4.968c3.309-0.575,6.618-1.172,9.924-1.797
						C71.687,83.166,69.94,72.98,63.499,72.907z M40.878,93.981c-2.202,0.247-4.412,0.594-6.626,1.022
						c0.108-1.855,0.216-3.707,0.324-5.562c2.831-0.397,5.658-0.814,8.481-1.25c0.019,1.778,0.031,3.552,0.039,5.33
						C42.355,93.673,41.615,93.827,40.878,93.981z M186.74,89.69c0.001-0.053,0.01-0.102,0.01-0.156
						c0-1.536-0.552-3.015-1.449-4.261c-2.199-6.711-4.422-13.414-6.596-20.126c-3.364-10.383-5.612-21.656-13.939-29.247
						c-1.377-1.262-3-1.828-4.582-1.828c-3.352,0-6.502,2.557-6.692,6.495c-0.861,18.15-4.231,35.802-7.122,53.541
						c-0.093,0.338-0.151,0.682-0.165,1.025c-1.215,7.508-2.338,15.034-3.134,22.622c-0.339,3.209,4.837,4.601,6.171,1.67
						c3.191-7.018,5.565-14.372,7.462-21.9c2.163-0.235,4.326-0.459,6.492-0.674c1.851-0.187,5.767-1.016,8.836-1.154
						c1.93,6.743,3.902,13.473,6.029,20.149c3.127,9.796,18.42,5.712,15.497-4.273C191.414,104.244,189.101,96.959,186.74,89.69z
						 M161.853,86.946c-0.994,0.272-1.978,0.566-2.957,0.868c1.647-8.173,2.901-16.471,4.15-24.707
						c1.396,4.952,2.538,9.989,3.907,14.752c0.726,2.523,1.441,5.05,2.158,7.577C166.572,86.005,163.938,86.375,161.853,86.946z"/>
				</g>
			</g>
		</g>
	</g>
</g>
</svg>