<!-- Generator: Adobe Illustrator 21.1.0, SVG Export Plug-In  -->
<svg version="1.1"
	 xmlns="http://www.w3.org/2000/svg" xmlns:xlink="http://www.w3.org/1999/xlink" xmlns:a="http://ns.adobe.com/AdobeSVGViewerExtensions/3.0/"
	 x="0px" y="0px" width="124.697px" height="86.229px" viewBox="0 0 124.697 86.229"
	 style="enable-background:new 0 0 124.697 86.229;" xml:space="preserve">
<style type="text/css">
	.st0{fill:#FFFFFF;}
	.st1{fill:url(#XMLID_3_);}
	.st2{fill:url(#XMLID_4_);}
</style>
<defs>
</defs>
<g id="XMLID_1_">
	<g>
		<g>
			<path class="st0" d="M0,85.996V73.03h6.823c2.469,0,3.732,1.574,3.732,3.305c0,1.613-1.011,2.721-2.235,2.974
				c1.399,0.214,2.488,1.556,2.488,3.169c0,1.964-1.283,3.519-3.771,3.519H0z M7.737,76.82c0-0.797-0.583-1.36-1.517-1.36h-3.46
				v2.722h3.46C7.154,78.181,7.737,77.656,7.737,76.82z M7.99,82.089c0-0.816-0.584-1.478-1.653-1.478H2.761v2.955h3.576
				C7.368,83.566,7.99,83.021,7.99,82.089z"/>
			<path class="st0" d="M21.852,85.996L21.035,83.8h-5.56l-0.816,2.196h-3.13l4.996-12.966h3.46l4.996,12.966H21.852z M18.255,75.79
				l-2.021,5.579h4.043L18.255,75.79z"/>
			<path class="st0" d="M25.566,79.522c0-4.004,3.013-6.706,6.92-6.706c2.838,0,4.491,1.535,5.404,3.168l-2.371,1.167
				c-0.545-1.05-1.711-1.886-3.033-1.886c-2.371,0-4.082,1.808-4.082,4.257s1.711,4.258,4.082,4.258
				c1.322,0,2.488-0.836,3.033-1.886l2.371,1.146c-0.913,1.613-2.566,3.188-5.404,3.188C28.579,86.229,25.566,83.508,25.566,79.522z
				"/>
			<path class="st0" d="M47.242,85.996l-3.927-5.21l-1.011,1.225v3.985h-2.76V73.03h2.76v5.773l4.588-5.773h3.402l-5.151,6.084
				l5.501,6.882H47.242z"/>
			<path class="st0" d="M59.899,85.996V75.46h-3.791v-2.43H66.45v2.43h-3.771v10.536H59.899z"/>
			<path class="st0" d="M67.599,79.522c0-3.907,2.857-6.706,6.784-6.706c3.907,0,6.765,2.799,6.765,6.706s-2.857,6.707-6.765,6.707
				C70.456,86.229,67.599,83.43,67.599,79.522z M78.31,79.522c0-2.43-1.536-4.257-3.927-4.257c-2.411,0-3.946,1.827-3.946,4.257
				c0,2.411,1.535,4.258,3.946,4.258C76.773,83.78,78.31,81.933,78.31,79.522z"/>
			<path class="st0" d="M91.084,85.996V75.46h-3.791v-2.43h10.342v2.43h-3.771v10.536H91.084z"/>
			<path class="st0" d="M98.782,79.522c0-3.907,2.857-6.706,6.784-6.706c3.907,0,6.766,2.799,6.766,6.706s-2.858,6.707-6.766,6.707
				C101.64,86.229,98.782,83.43,98.782,79.522z M109.493,79.522c0-2.43-1.535-4.257-3.927-4.257c-2.41,0-3.946,1.827-3.946,4.257
				c0,2.411,1.536,4.258,3.946,4.258C107.958,83.78,109.493,81.933,109.493,79.522z"/>
			<path class="st0" d="M114.277,85.996V73.03h6.065c2.818,0,4.354,1.904,4.354,4.179c0,2.256-1.556,4.16-4.354,4.16h-3.305v4.627
				H114.277z M121.878,77.209c0-1.088-0.836-1.749-1.924-1.749h-2.916v3.479h2.916C121.042,78.939,121.878,78.278,121.878,77.209z"
				/>
		</g>
	</g>
	<linearGradient id="XMLID_3_" gradientUnits="userSpaceOnUse" x1="22.7867" y1="22.1108" x2="97.0157" y2="22.1108">
		<stop  offset="0" style="stop-color:#FFF13D"/>
		<stop  offset="0.0595" style="stop-color:#FFE51F"/>
		<stop  offset="0.1303" style="stop-color:#FED800"/>
		<stop  offset="0.2032" style="stop-color:#FCCF00"/>
		<stop  offset="0.2809" style="stop-color:#FBCC00"/>
		<stop  offset="0.6685" style="stop-color:#EF963B"/>
		<stop  offset="0.8876" style="stop-color:#E87037"/>
		<stop  offset="1" style="stop-color:#E14332"/>
	</linearGradient>
	<polygon id="XMLID_2_" class="st1" points="59.901,0 22.787,44.222 28.314,44.222 59.901,6.586 91.488,44.222 97.016,44.222 	"/>
</g>
</svg>