<!-- Generator: Adobe Illustrator 21.1.0, SVG Export Plug-In  -->
<svg version="1.1"
	 xmlns="http://www.w3.org/2000/svg" xmlns:xlink="http://www.w3.org/1999/xlink" xmlns:a="http://ns.adobe.com/AdobeSVGViewerExtensions/3.0/"
	 x="0px" y="0px" width="360.598px" height="132.152px" viewBox="0 0 360.598 132.152"
	 style="enable-background:new 0 0 360.598 132.152;" xml:space="preserve">
<style type="text/css">
	.st0{fill:#ABAAAA;}
	.st1{fill:url(#XMLID_96_);}
	.st2{fill:#FFFFFF;}
	.st3{fill:#B0AFB5;}
	.st4{fill:url(#XMLID_97_);}
</style>
<defs>
</defs>
<g id="XMLID_1_">
	<g id="XMLID_64_">
		<path id="XMLID_92_" class="st0" d="M13.095,123.89V95.32h9.475c6.33,0,9.497,2.537,9.497,7.613c0,0.797-0.105,1.539-0.316,2.226
			c-0.21,0.685-0.467,1.231-0.768,1.636c-0.302,0.406-0.597,0.76-0.885,1.061c-0.287,0.301-0.551,0.507-0.789,0.618l-0.295,0.209
			c0.141,0.029,0.313,0.085,0.517,0.169c0.203,0.083,0.586,0.313,1.149,0.688c0.562,0.375,1.051,0.803,1.466,1.282
			c0.415,0.481,0.795,1.161,1.14,2.044c0.344,0.884,0.517,1.853,0.517,2.91c0,5.41-3.455,8.115-10.364,8.115H13.095z
			 M16.191,107.701h7.058c1.74,0,3.13-0.301,4.167-0.904c1.037-0.601,1.555-1.807,1.555-3.612c0-1.864-0.505-3.156-1.514-3.877
			c-1.009-0.72-2.544-1.083-4.604-1.083h-6.662V107.701z M16.191,120.983h7.488c2.175,0,3.89-0.378,5.145-1.136
			c1.255-0.756,1.883-2.169,1.883-4.239c0-0.874-0.15-1.628-0.449-2.261c-0.3-0.631-0.666-1.124-1.098-1.479
			c-0.433-0.354-0.991-0.625-1.674-0.812c-0.683-0.189-1.317-0.31-1.902-0.366c-0.587-0.055-1.263-0.083-2.029-0.083h-7.363V120.983
			z"/>
		<path id="XMLID_91_" class="st0" d="M39.094,114.897v-12.382h3.096v12.521c0,2.171,0.473,3.76,1.42,4.769
			c0.946,1.008,2.429,1.513,4.446,1.513c1.991,0,3.467-0.504,4.427-1.513c0.96-1.009,1.44-2.598,1.44-4.769v-12.521h3.096v12.382
			c0,2.97-0.781,5.268-2.34,6.892c-1.562,1.625-3.769,2.436-6.623,2.436c-2.853,0-5.06-0.812-6.621-2.436
			C39.874,120.165,39.094,117.867,39.094,114.897"/>
		<path id="XMLID_88_" class="st0" d="M64.025,95.319h3.43v3.43h-3.43V95.319z M64.193,123.89h3.096v-21.376h-3.096V123.89z"/>
		<rect id="XMLID_87_" x="74.337" y="94.377" class="st0" width="3.096" height="29.513"/>
		<path id="XMLID_84_" class="st0" d="M83.31,112.93c0-2.119,0.287-3.922,0.859-5.407c0.572-1.485,1.364-2.597,2.376-3.336
			c1.011-0.739,2.04-1.258,3.088-1.558c1.047-0.3,2.198-0.45,3.454-0.45c1.88,0,3.647,0.273,5.304,0.816v-8.617h3.095v23.133
			c0,0.572-0.083,1.158-0.251,1.757c-0.168,0.6-0.517,1.314-1.047,2.143c-0.531,0.83-1.439,1.506-2.722,2.028
			c-1.285,0.523-2.869,0.785-4.754,0.785c-0.795,0-1.574-0.07-2.335-0.209c-0.761-0.139-1.584-0.453-2.471-0.941
			c-0.886-0.489-1.65-1.123-2.292-1.904c-0.642-0.78-1.187-1.88-1.633-3.294C83.533,116.462,83.31,114.812,83.31,112.93
			 M86.406,112.93c0,1.799,0.195,3.304,0.584,4.518c0.39,1.213,0.925,2.084,1.608,2.614c0.682,0.531,1.336,0.886,1.962,1.067
			c0.627,0.181,1.344,0.273,2.151,0.273c3.786,0,5.679-1.255,5.679-3.766V106.07c-1.74-0.711-3.509-1.066-5.304-1.066
			c-2.338,0-4.036,0.627-5.093,1.882C86.934,108.141,86.406,110.155,86.406,112.93"/>
		<path id="XMLID_81_" class="st0" d="M107.803,95.319h3.43v3.43h-3.43V95.319z M107.971,123.89h3.096v-21.376h-3.096V123.89z"/>
		<path id="XMLID_80_" class="st0" d="M117.843,123.89v-19.662c2.805-1.393,5.821-2.09,9.045-2.09c2.689,0,4.774,0.683,6.257,2.05
			c1.484,1.366,2.226,3.29,2.226,5.773v13.93h-3.096v-13.93c0-0.599-0.063-1.134-0.189-1.6c-0.125-0.467-0.369-0.966-0.73-1.496
			c-0.363-0.529-0.946-0.938-1.754-1.224c-0.808-0.286-1.823-0.429-3.048-0.429c-1.796,0-3.668,0.286-5.616,0.857v17.821H117.843z"
			/>
		<path id="XMLID_77_" class="st0" d="M141.038,113.109c0-2.233,0.3-4.128,0.901-5.684c0.599-1.557,1.406-2.691,2.418-3.402
			c1.011-0.711,1.975-1.204,2.889-1.476c0.915-0.271,1.874-0.408,2.88-0.408c1.824,0,3.356,0.254,4.597,0.762
			c1.239,0.51,2.11,1.165,2.611,1.967c0.501,0.802,0.84,1.496,1.014,2.082c0.174,0.586,0.261,1.165,0.261,1.736v16.106
			c0,0.948-0.136,1.819-0.408,2.614c-0.272,0.795-0.721,1.571-1.347,2.331c-0.627,0.76-1.585,1.353-2.872,1.779
			c-1.288,0.424-2.845,0.638-4.669,0.638c-1.993,0-4.02-0.259-6.083-0.774v-2.908c1.826,0.516,3.741,0.773,5.75,0.773
			c1.363,0,2.508-0.122,3.433-0.364c0.926-0.244,1.597-0.591,2.015-1.043c0.418-0.453,0.703-0.901,0.856-1.346
			c0.153-0.446,0.23-0.981,0.23-1.606v-2.129c-1.601,0.52-3.271,0.779-5.011,0.779c-0.949,0-1.836-0.079-2.659-0.24
			c-0.823-0.16-1.664-0.478-2.523-0.952c-0.858-0.475-1.594-1.089-2.208-1.843c-0.615-0.754-1.114-1.759-1.497-3.014
			C141.231,116.228,141.038,114.769,141.038,113.109 M144.134,113.098c0,1.604,0.171,2.925,0.512,3.963
			c0.341,1.039,0.842,1.81,1.502,2.311c0.662,0.502,1.326,0.838,1.994,1.005c0.669,0.167,1.456,0.25,2.36,0.25
			c1.712,0,3.382-0.327,5.011-0.983v-11.085c0-2.398-1.796-3.598-5.387-3.598c-0.765,0-1.448,0.091-2.046,0.273
			c-0.598,0.181-1.224,0.529-1.879,1.046c-0.654,0.515-1.162,1.352-1.524,2.509C144.315,109.947,144.134,111.382,144.134,113.098"/>
		<path id="XMLID_76_" class="st0" d="M180.005,123.89v-19.702c2.751-1.367,5.605-2.05,8.566-2.05c2.339,0,4.22,0.585,5.641,1.756
			c2.748-1.171,5.393-1.756,7.933-1.756c2.597,0,4.611,0.683,6.043,2.05c1.431,1.366,2.146,3.29,2.146,5.773v13.93h-3.095v-13.93
			c0-0.599-0.056-1.134-0.167-1.6c-0.111-0.467-0.338-0.966-0.678-1.496c-0.342-0.529-0.891-0.938-1.65-1.224
			c-0.758-0.286-1.695-0.429-2.807-0.429c-1.797,0-3.769,0.355-5.914,1.067c0.464,1.031,0.695,2.259,0.695,3.682v13.93h-3.096
			v-13.93c0-0.628-0.058-1.175-0.177-1.642c-0.119-0.467-0.348-0.958-0.69-1.474c-0.341-0.516-0.901-0.918-1.68-1.203
			c-0.779-0.286-1.739-0.429-2.881-0.429c-1.74,0-3.437,0.259-5.093,0.773v17.905H180.005z"/>
		<path id="XMLID_75_" class="st0" d="M214.789,102.514h3.305l6.087,16.921l6.17-16.921h3.304l-8.743,23.468
			c-1.521,4.114-3.766,6.17-6.735,6.17c-0.684,0-1.353-0.126-2.009-0.377v-2.823c0.572,0.251,1.186,0.377,1.841,0.377
			c0.544,0,1.081-0.199,1.611-0.596c0.531-0.398,0.966-0.876,1.308-1.433c0.341-0.557,0.655-1.123,0.941-1.694
			c0.287-0.573,0.485-1.061,0.596-1.465l0.21-0.585L214.789,102.514z"/>
		<path id="XMLID_72_" class="st0" d="M252.02,113.109c0-2.233,0.3-4.128,0.9-5.684c0.6-1.557,1.406-2.691,2.418-3.402
			c1.012-0.711,1.975-1.204,2.89-1.476c0.914-0.271,1.874-0.408,2.878-0.408c1.824,0,3.357,0.254,4.596,0.762
			c1.239,0.51,2.11,1.165,2.612,1.967c0.5,0.802,0.839,1.496,1.014,2.082c0.173,0.586,0.26,1.165,0.26,1.736v16.106
			c0,0.948-0.135,1.819-0.406,2.614c-0.272,0.795-0.722,1.571-1.348,2.331c-0.627,0.76-1.585,1.353-2.872,1.779
			c-1.289,0.424-2.845,0.638-4.669,0.638c-1.992,0-4.021-0.259-6.083-0.774v-2.908c1.826,0.516,3.742,0.773,5.749,0.773
			c1.363,0,2.508-0.122,3.433-0.364c0.927-0.244,1.598-0.591,2.016-1.043c0.418-0.453,0.702-0.901,0.855-1.346
			c0.153-0.446,0.23-0.981,0.23-1.606v-2.129c-1.601,0.52-3.27,0.779-5.01,0.779c-0.95,0-1.836-0.079-2.659-0.24
			c-0.823-0.16-1.664-0.478-2.524-0.952c-0.857-0.475-1.594-1.089-2.208-1.843c-0.615-0.754-1.114-1.759-1.497-3.014
			C252.211,116.228,252.02,114.769,252.02,113.109 M255.115,113.098c0,1.604,0.17,2.925,0.51,3.963
			c0.342,1.039,0.842,1.81,1.504,2.311c0.66,0.502,1.325,0.838,1.993,1.005c0.668,0.167,1.456,0.25,2.36,0.25
			c1.712,0,3.382-0.327,5.01-0.983v-11.085c0-2.398-1.796-3.598-5.387-3.598c-0.766,0-1.447,0.091-2.045,0.273
			c-0.599,0.181-1.225,0.529-1.879,1.046c-0.654,0.515-1.163,1.352-1.524,2.509C255.295,109.947,255.115,111.382,255.115,113.098"/>
		<path id="XMLID_69_" class="st0" d="M274.545,117.323c0-0.96,0.178-1.822,0.533-2.583c0.357-0.762,0.792-1.379,1.308-1.853
			c0.515-0.474,1.17-0.878,1.965-1.215c0.795-0.336,1.498-0.583,2.112-0.741c0.613-0.158,1.342-0.279,2.185-0.36
			c0.844-0.083,1.444-0.13,1.799-0.145c0.356-0.013,0.778-0.021,1.266-0.021l3.43,0.203c0-1.939-0.526-3.324-1.576-4.153
			c-1.052-0.828-2.606-1.243-4.667-1.243c-2.313,0-4.397,0.343-6.251,1.025v-2.99c2.104-0.739,4.245-1.109,6.419-1.109
			c2.993,0,5.277,0.756,6.851,2.27c1.574,1.513,2.361,3.727,2.361,6.641v6.42c0,1.368-0.317,2.535-0.951,3.503
			c-0.634,0.97-1.448,1.67-2.444,2.102c-0.996,0.433-1.928,0.733-2.799,0.899c-0.871,0.168-1.731,0.251-2.58,0.251
			c-0.657,0-1.33-0.041-2.021-0.125c-0.691-0.084-1.472-0.276-2.345-0.576c-0.873-0.301-1.63-0.686-2.272-1.154
			c-0.642-0.469-1.19-1.14-1.644-2.014C274.772,119.48,274.545,118.47,274.545,117.323 M277.641,117.323
			c0,2.664,1.935,3.994,5.804,3.994h0.063c3.786,0,5.679-1.289,5.679-3.87v-4.098c-0.946-0.168-2.213-0.251-3.799-0.251
			C280.223,113.098,277.641,114.506,277.641,117.323"/>
		<path id="XMLID_68_" class="st0" d="M298.097,123.89v-19.702c2.751-1.367,5.605-2.05,8.566-2.05c2.339,0,4.22,0.585,5.64,1.756
			c2.749-1.171,5.393-1.756,7.933-1.756c2.597,0,4.611,0.683,6.043,2.05c1.431,1.366,2.146,3.29,2.146,5.773v13.93h-3.095v-13.93
			c0-0.599-0.056-1.134-0.167-1.6c-0.111-0.467-0.338-0.966-0.678-1.496c-0.342-0.529-0.891-0.938-1.65-1.224
			c-0.758-0.286-1.695-0.429-2.807-0.429c-1.797,0-3.769,0.355-5.914,1.067c0.464,1.031,0.695,2.259,0.695,3.682v13.93h-3.096
			v-13.93c0-0.628-0.058-1.175-0.177-1.642c-0.119-0.467-0.348-0.958-0.69-1.474c-0.341-0.516-0.901-0.918-1.68-1.203
			c-0.779-0.286-1.739-0.429-2.881-0.429c-1.74,0-3.437,0.259-5.093,0.773v17.905H298.097z"/>
		<path id="XMLID_65_" class="st0" d="M333.843,113.474v-0.147v-0.167c0-7.349,3.119-11.022,9.36-11.022
			c1.304,0,2.485,0.206,3.547,0.617c1.06,0.411,1.902,0.896,2.527,1.454c0.624,0.557,1.171,1.286,1.644,2.186
			c0.47,0.899,0.807,1.662,1.008,2.289c0.201,0.628,0.357,1.389,0.467,2.28c0.111,0.865,0.167,1.409,0.167,1.633v0.919l-0.083,1.507
			h-15.542c0.195,2.148,0.851,3.705,1.969,4.675c1.117,0.97,2.773,1.454,4.965,1.454c3.099,0,5.538-0.53,7.316-1.589v3.179
			c-2.057,0.99-4.551,1.485-7.484,1.485h-0.125c-1.251,0-2.398-0.15-3.441-0.449c-1.042-0.3-2.068-0.82-3.075-1.558
			c-1.008-0.739-1.797-1.851-2.368-3.336C334.127,117.396,333.843,115.594,333.843,113.474 M336.938,112.282h12.528
			c0-0.488-0.06-1.032-0.178-1.632c-0.119-0.599-0.356-1.37-0.713-2.312c-0.356-0.941-0.997-1.725-1.927-2.353
			c-0.929-0.627-2.078-0.941-3.447-0.941c-2.123,0-3.663,0.551-4.62,1.652C337.626,107.799,337.077,109.66,336.938,112.282"/>
	</g>
	<g id="XMLID_2_">
		<g id="XMLID_31_">
			<g id="XMLID_33_">
				
					<linearGradient id="XMLID_96_" gradientUnits="userSpaceOnUse" x1="197.5668" y1="985.0123" x2="-163.0313" y2="985.0123" gradientTransform="matrix(1 0 0 1 163.0313 -943.7413)">
					<stop  offset="0" style="stop-color:#FFF13D"/>
					<stop  offset="0.0595" style="stop-color:#FFE51F"/>
					<stop  offset="0.1303" style="stop-color:#FED800"/>
					<stop  offset="0.2032" style="stop-color:#FCCF00"/>
					<stop  offset="0.2809" style="stop-color:#FBCC00"/>
					<stop  offset="0.6685" style="stop-color:#EF963B"/>
					<stop  offset="0.8876" style="stop-color:#E87037"/>
					<stop  offset="1" style="stop-color:#E14332"/>
				</linearGradient>
				<path id="XMLID_34_" class="st1" d="M360.598,16.173V1.199h-56.544v79.905h56.544V66.13h-39.533V48.04h38.694V33.065h-38.694
					V16.173H360.598z M104.945,22.882c0-4.793,4.073-8.027,11.381-8.027c8.146,0,16.772,2.755,23.241,8.745l9.464-12.459
					C141.124,3.834,130.582,0,117.883,0C99.075,0,87.574,11.022,87.574,24.319c0,30.07,46.003,20.366,46.003,34.502
					c0,4.553-4.552,8.866-13.897,8.866c-11.022,0-19.767-4.912-25.397-10.782l-9.225,12.938
					c7.427,7.547,18.449,12.698,33.783,12.698c21.564,0,31.986-11.022,31.986-25.637C150.828,27.075,104.945,35.581,104.945,22.882z
					 M30.908,1.199L0,81.104h19.408l5.031-13.537h34.262l4.912,13.537h19.408L52.232,1.199H30.908z M29.111,52.592L41.57,18.21
					l12.459,34.382H29.111z M234.21,81.104h56.545V66.13h-39.534V48.04h38.695V33.065h-38.695V16.173h39.534V1.199H234.21V81.104z
					 M176.825,22.882c0-4.793,4.073-8.027,11.381-8.027c8.146,0,16.772,2.755,23.241,8.745l9.464-12.459
					C213.004,3.834,202.462,0,189.763,0c-18.809,0-30.309,11.022-30.309,24.319c0,30.07,46.003,20.366,46.003,34.502
					c0,4.553-4.552,8.866-13.896,8.866c-11.022,0-19.767-4.912-25.397-10.782l-9.225,12.938
					c7.427,7.547,18.449,12.698,33.783,12.698c21.564,0,31.986-11.022,31.986-25.637C222.708,27.075,176.825,35.581,176.825,22.882z
					"/>
			</g>
		</g>
		<g id="XMLID_17_">
			<polygon id="XMLID_30_" class="st2" points="53.173,3.639 52.232,1.199 30.908,1.199 0,81.104 3.384,81.104 33.349,3.639 			"/>
			<path id="XMLID_29_" class="st2" d="M120.324,2.44c11.348,0,20.967,3.07,28.529,8.937l0.178-0.235
				C141.124,3.834,130.582,0,117.884,0C99.075,0,87.574,11.022,87.574,24.319c0,7.366,2.764,12.342,6.933,15.87
				c-2.771-3.299-4.493-7.619-4.493-13.429C90.015,13.462,101.515,2.44,120.324,2.44z"/>
			<path id="XMLID_28_" class="st2" d="M122.121,70.127c9.344,0,13.897-4.313,13.897-8.866c0-2.265-1.185-3.916-3.169-5.219
				c0.47,0.813,0.729,1.729,0.729,2.779c0,4.553-4.552,8.866-13.897,8.866c-11.022,0-19.767-4.912-25.397-10.782l-9.225,12.938
				c0.795,0.808,1.64,1.582,2.518,2.331l9.147-12.829C102.354,65.215,111.099,70.127,122.121,70.127z"/>
			<path id="XMLID_27_" class="st2" d="M194.001,70.127c9.344,0,13.897-4.313,13.897-8.866c0-2.265-1.185-3.916-3.169-5.219
				c0.47,0.813,0.729,1.729,0.729,2.779c0,4.553-4.552,8.866-13.897,8.866c-11.022,0-19.767-4.912-25.397-10.782l-9.225,12.938
				c0.795,0.808,1.64,1.582,2.518,2.331l9.147-12.829C174.234,65.215,182.979,70.127,194.001,70.127z"/>
			<path id="XMLID_26_" class="st2" d="M192.204,2.44c11.348,0,20.967,3.07,28.529,8.937l0.178-0.235
				C213.004,3.834,202.462,0,189.763,0c-18.809,0-30.309,11.022-30.309,24.319c0,7.366,2.764,12.342,6.933,15.87
				c-2.771-3.299-4.493-7.619-4.493-13.429C161.894,13.462,173.395,2.44,192.204,2.44z"/>
			<rect id="XMLID_25_" x="253.661" y="66.13" class="st2" width="37.093" height="2.44"/>
			<polygon id="XMLID_24_" class="st2" points="290.755,3.639 290.755,1.199 234.21,1.199 234.21,81.104 236.65,81.104 
				236.65,3.639 			"/>
			<rect id="XMLID_23_" x="253.661" y="33.065" class="st2" width="36.254" height="2.44"/>
			<polygon id="XMLID_22_" class="st2" points="360.598,3.639 360.598,1.199 304.054,1.199 304.054,81.104 306.494,81.104 
				306.494,3.639 			"/>
			<rect id="XMLID_21_" x="323.505" y="33.065" class="st2" width="36.255" height="2.44"/>
			<rect id="XMLID_20_" x="323.505" y="66.13" class="st2" width="37.093" height="2.44"/>
			<path id="XMLID_19_" class="st2" d="M94.508,40.189c9.273,11.04,30.336,10.598,38.341,15.854
				C128.542,48.592,106.092,49.992,94.508,40.189z"/>
			<path id="XMLID_18_" class="st2" d="M166.388,40.189c9.273,11.04,30.336,10.598,38.341,15.854
				C200.422,48.592,177.972,49.992,166.388,40.189z"/>
		</g>
		<g id="XMLID_3_">
			<path id="XMLID_16_" class="st3" d="M113.886,12.553c-7.308,0-11.381,3.234-11.381,8.027c0,1.965,1.101,3.422,2.958,4.592
				c-0.338-0.644-0.518-1.356-0.518-2.151c0-4.793,4.073-8.027,11.381-8.027c8.146,0,16.772,2.755,23.241,8.745l9.464-12.459
				c-0.841-0.778-1.718-1.507-2.619-2.205l-9.286,12.224C130.658,15.309,122.032,12.553,113.886,12.553z"/>
			<polygon id="XMLID_15_" class="st3" points="50.732,1.337 80.58,78.802 62.728,78.802 63.613,81.242 83.021,81.242 52.232,1.337 
							"/>
			<path id="XMLID_14_" class="st3" d="M143.792,41.045c2.831,3.349,4.596,7.716,4.596,13.558c0,14.615-10.423,25.637-31.986,25.637
				c-13.693,0-23.938-4.114-31.265-10.367l-0.078,0.109c7.427,7.547,18.449,12.699,33.783,12.699
				c21.564,0,31.986-11.022,31.986-25.637C150.828,49.664,148.018,44.633,143.792,41.045z"/>
			<path id="XMLID_13_" class="st3" d="M92.067,37.887c9.273,11.04,30.336,10.598,38.341,15.854
				C126.102,46.289,103.652,47.69,92.067,37.887z"/>
			<path id="XMLID_12_" class="st3" d="M215.672,41.045c2.831,3.349,4.596,7.716,4.596,13.558c0,14.615-10.423,25.637-31.986,25.637
				c-13.693,0-23.938-4.114-31.265-10.367l-0.078,0.109c7.427,7.547,18.449,12.699,33.783,12.699
				c21.564,0,31.986-11.022,31.986-25.637C222.708,49.664,219.898,44.633,215.672,41.045z"/>
			<path id="XMLID_11_" class="st3" d="M163.947,37.887c9.273,11.04,30.336,10.598,38.341,15.854
				C197.982,46.289,175.532,47.69,163.947,37.887z"/>
			<path id="XMLID_10_" class="st3" d="M185.766,12.553c-7.308,0-11.381,3.234-11.381,8.027c0,1.965,1.101,3.422,2.958,4.592
				c-0.338-0.644-0.518-1.356-0.518-2.151c0-4.793,4.073-8.027,11.381-8.027c8.146,0,16.772,2.755,23.241,8.745l9.464-12.459
				c-0.841-0.778-1.718-1.507-2.619-2.205l-9.286,12.224C202.538,15.309,193.912,12.553,185.766,12.553z"/>
			<polygon id="XMLID_9_" class="st3" points="234.21,78.802 234.21,81.242 290.755,81.242 290.755,66.268 288.314,66.268 
				288.314,78.802 			"/>
			<polygon id="XMLID_8_" class="st3" points="248.781,45.738 248.781,63.827 251.221,63.827 251.221,48.178 289.916,48.178 
				289.916,33.203 287.475,33.203 287.475,45.738 			"/>
			<polygon id="XMLID_7_" class="st3" points="288.314,13.871 248.781,13.871 248.781,30.763 251.221,30.763 251.221,16.312 
				290.755,16.312 290.755,1.337 288.314,1.337 			"/>
			<polygon id="XMLID_6_" class="st3" points="360.598,16.312 360.598,1.337 358.158,1.337 358.158,13.871 318.624,13.871 
				318.624,30.763 321.064,30.763 321.064,16.312 			"/>
			<polygon id="XMLID_5_" class="st3" points="318.624,45.738 318.624,63.827 321.064,63.827 321.064,48.178 359.76,48.178 
				359.76,33.203 357.319,33.203 357.319,45.738 			"/>
			<polygon id="XMLID_4_" class="st3" points="304.054,78.802 304.054,81.242 360.598,81.242 360.598,66.268 358.158,66.268 
				358.158,78.802 			"/>
		</g>
	</g>
</g>
</svg>