<!-- Generator: Adobe Illustrator 21.0.2, SVG Export Plug-In  -->
<svg version="1.1"
	 xmlns="http://www.w3.org/2000/svg" xmlns:xlink="http://www.w3.org/1999/xlink" xmlns:a="http://ns.adobe.com/AdobeSVGViewerExtensions/3.0/"
	 x="0px" y="0px" width="281.328px" height="135.065px" viewBox="0 0 281.328 135.065"
	 style="overflow:scroll;enable-background:new 0 0 281.328 135.065;" xml:space="preserve">
<style type="text/css">
	.st0{fill:url(#SVGID_13_);}
	.st1{fill:url(#XMLID_65_);}
	.st2{fill:url(#SVGID_14_);}
	.st3{fill:url(#XMLID_66_);}
	.st4{fill:url(#SVGID_15_);}
	.st5{fill:url(#XMLID_67_);}
	.st6{fill:url(#SVGID_16_);}
	.st7{fill:url(#XMLID_68_);}
</style>
<defs>
</defs>
<g id="XMLID_32_">
	<linearGradient id="SVGID_13_" gradientUnits="userSpaceOnUse" x1="212.9697" y1="59.9146" x2="281.3278" y2="59.9146">
		<stop  offset="0" style="stop-color:#99161B"/>
		<stop  offset="0.2403" style="stop-color:#AA4824"/>
		<stop  offset="0.6039" style="stop-color:#C28D32"/>
		<stop  offset="0.8668" style="stop-color:#D1B83A"/>
		<stop  offset="1" style="stop-color:#D7C93D"/>
	</linearGradient>
	<path id="SVGID_12_" class="st0" d="M249.502,29.748c-0.485,9.584-0.72,19.168-0.72,28.751c-7.038,1.731-14.167,3.125-20.652,3.284
		C234.494,50.605,241.748,40.024,249.502,29.748 M251.055,7.637c-0.25,2.754-0.477,5.508-0.686,8.262
		c-0.693,0.182-1.386,0.61-2.019,1.337C235.57,31.945,224.596,47.722,213.8,63.923c-2.087,3.133,0.019,7.572,3.459,8.504
		c9.709,2.625,20.751,1.47,31.676-0.64c0.303,13.326,1.049,26.649,2.22,39.979c0.943,10.732,17.868,10.769,16.834,0
		c-1.394-14.55-2.242-29.069-2.576-43.585c3.762-0.849,7.413-1.633,10.887-2.22c7.773-1.318,5.546-11.3,0-13.641
		c-8.823-3.72-8.394-36.558-9.398-44.684C266.279,2.583,262.503,0,258.783,0C255.12,0,251.521,2.508,251.055,7.637"/>
	<g id="XMLID_33_">
		<g id="XMLID_35_">
			<linearGradient id="XMLID_65_" gradientUnits="userSpaceOnUse" x1="-1.100307e-05" y1="80.2281" x2="222.9812" y2="80.2281">
				<stop  offset="0" style="stop-color:#0C2158"/>
				<stop  offset="0.3385" style="stop-color:#2B4074"/>
				<stop  offset="1" style="stop-color:#7187B4"/>
			</linearGradient>
			<path id="XMLID_36_" class="st1" d="M129.663,31.626c-4.114-0.004-8.262,2.644-8.337,7.94
				c-0.155,11.383-0.394,22.759-0.682,34.134c-0.174,6.69,0.572,15.58-0.049,23.732c-4.637-10.247-7.243-23.065-9.879-31.751
				c-2.519-8.296-14.955-6.75-15.133,2.046c-0.163,8.247-0.413,16.433-0.913,24.592c-1.155-4.299-2.311-8.599-3.462-12.898
				c-3.087-11.485-6.084-22.993-9.368-34.422c0.087-0.83-0.057-1.742-0.507-2.69c-0.371-0.773-0.739-1.546-1.102-2.315
				c-2.565-5.383-10.285-1.42-9.178,3.868c3.822,18.338,8.307,36.543,12.553,54.787c2.038,8.743,1.777,25.706,11.224,30.088
				c3.849,1.784,9.186,0.58,10.25-4.174c1.246-5.576,2.205-11.186,2.958-16.819c2.682,5.394,5.966,10.167,10.144,13.671
				c3.898,3.273,9.724,3.106,12.519-1.614c6.133-10.349,5.36-21.944,5.849-33.691c0.64-15.512,1.015-31.02,1.231-46.544
				C137.853,34.274,133.777,31.626,129.663,31.626z M221.925,36.058c3.197-5.826-1.424-10.667-6.398-10.667
				c-2.235,0-4.542,0.977-6.246,3.28c-3.807,5.167-9.591,10.273-13.929,15.932c-4.64-4.784-9.232-9.622-13.815-14.463
				c-4.25-4.493-10.186,2-6.606,6.603l1.421,1.83c0.174,0.22,0.352,0.413,0.538,0.583c4.364,5.379,8.72,10.769,12.993,16.22
				c-0.182,0.852-0.307,1.72-0.368,2.606c-1.042,15.955,2.716,33.634,4.004,49.57c0.871,10.834,17.982,10.8,16.925,0
				c-1.341-13.77-2.686-27.539-4.027-41.309c-0.053-0.534-0.099-1.038-0.136-1.515c0.348-0.379,0.667-0.818,0.947-1.326
				C212.197,54.324,216.944,45.127,221.925,36.058z M62.365,71.605c-9.349-0.102-6.246-6.879-6.474-14.023
				c-0.178-5.572-1.648-10.027-3.818-15.126c-0.879-2.061-2.697-2.943-4.614-2.943c-3.189,0-6.64,2.44-6.459,5.94
				c0.386,7.303,0.686,14.603,0.905,21.906c-0.201,2.477-0.235,4.879,0.186,7.076c0.004,0.205,0.008,0.409,0.011,0.617
				c-3.64,0.572-7.281,1.11-10.932,1.621c-0.208-6.133-0.621-12.277-1.402-18.44c-0.326-2.606-4.174-2.788-4.205,0
				c-0.068,6.315-0.026,12.739-0.049,19.202c-0.508,0.064-1.019,0.133-1.53,0.197c-5.655,0.538-11.296,1.178-16.94,1.928
				c-7.144,0.951-7.466,12.228,0,11.497c5.182-0.508,10.353-1.076,15.512-1.708c-0.114,2.25-0.227,4.5-0.341,6.747
				c-3.693,1.045-7.356,2.182-10.963,3.28c-2.356,0.667-4.705,1.36-7.053,2.076c-7.345,2.246-4.273,13.664,3.189,11.557
				c1.64-0.462,3.318-0.97,5.019-1.492c3.049-0.89,6.102-1.746,9.167-2.568c-0.322,6.493-0.644,12.989-0.962,19.482
				c-0.349,7.038,11.288,7.057,10.944,0c0.443-7.444,0.89-14.883,1.33-22.327c2.496-0.587,4.993-1.144,7.5-1.671
				c0.303,8.311,0.765,16.599,1.394,24.899c0.572,7.561,11.618,7.728,11.879,0c0.311-9.159,0.492-18.315,0.542-27.467
				c2.439-0.39,4.886-0.75,7.337-1.072c8.894-1.178,7.345-13.811-1.655-12.25c-1.902,0.33-3.796,0.667-5.69,1.011
				c-0.011-1.625-0.027-3.254-0.046-4.879c3.25-0.564,6.5-1.152,9.747-1.765C70.407,81.682,68.691,71.677,62.365,71.605z
				 M40.148,92.303c-2.163,0.242-4.333,0.583-6.508,1.004c0.106-1.822,0.212-3.64,0.318-5.462c2.78-0.39,5.557-0.799,8.33-1.227
				c0.019,1.746,0.03,3.489,0.038,5.235C41.599,92,40.872,92.152,40.148,92.303z M183.406,88.089c0.001-0.053,0.01-0.1,0.01-0.153
				c0-1.509-0.542-2.962-1.424-4.185c-2.16-6.591-4.344-13.174-6.478-19.767c-3.303-10.197-5.512-21.27-13.691-28.725
				c-1.352-1.239-2.947-1.796-4.5-1.796c-3.292,0-6.386,2.511-6.572,6.379c-0.845,17.826-4.155,35.163-6.995,52.585
				c-0.092,0.332-0.148,0.67-0.162,1.007c-1.194,7.374-2.296,14.766-3.078,22.218c-0.333,3.152,4.75,4.519,6.061,1.64
				c3.134-6.893,5.465-14.115,7.329-21.509c2.124-0.231,4.249-0.45,6.376-0.662c1.818-0.183,5.664-0.997,8.678-1.133
				c1.895,6.622,3.832,13.232,5.922,19.789c3.072,9.622,18.092,5.61,15.22-4.197C187.997,102.382,185.725,95.228,183.406,88.089z
				 M158.964,85.394c-0.976,0.268-1.942,0.556-2.905,0.852c1.617-8.027,2.849-16.177,4.076-24.266
				c1.371,4.864,2.492,9.811,3.837,14.489c0.713,2.478,1.416,4.96,2.12,7.441C163.598,84.469,161.011,84.833,158.964,85.394z"/>
		</g>
	</g>
</g>
<g id="XMLID_1_">
	<linearGradient id="SVGID_14_" gradientUnits="userSpaceOnUse" x1="212.9697" y1="59.9146" x2="281.3278" y2="59.9146">
		<stop  offset="0" style="stop-color:#99161B"/>
		<stop  offset="0.2403" style="stop-color:#AA4824"/>
		<stop  offset="0.6039" style="stop-color:#C28D32"/>
		<stop  offset="0.8668" style="stop-color:#D1B83A"/>
		<stop  offset="1" style="stop-color:#D7C93D"/>
	</linearGradient>
	<path id="SVGID_8_" class="st2" d="M249.502,29.748c-0.485,9.584-0.72,19.168-0.72,28.751c-7.038,1.731-14.167,3.125-20.652,3.284
		C234.494,50.605,241.748,40.024,249.502,29.748 M251.055,7.637c-0.25,2.754-0.477,5.508-0.686,8.262
		c-0.693,0.182-1.386,0.61-2.019,1.337C235.57,31.945,224.596,47.722,213.8,63.923c-2.087,3.133,0.019,7.572,3.459,8.504
		c9.709,2.625,20.751,1.47,31.676-0.64c0.303,13.326,1.049,26.649,2.22,39.979c0.943,10.732,17.868,10.769,16.834,0
		c-1.394-14.55-2.242-29.069-2.576-43.585c3.762-0.849,7.413-1.633,10.887-2.22c7.773-1.318,5.546-11.3,0-13.641
		c-8.823-3.72-8.394-36.558-9.398-44.684C266.279,2.583,262.503,0,258.783,0C255.12,0,251.521,2.508,251.055,7.637"/>
	<g id="XMLID_2_">
		<g id="XMLID_4_">
			<linearGradient id="XMLID_66_" gradientUnits="userSpaceOnUse" x1="-1.100307e-05" y1="80.2281" x2="222.9812" y2="80.2281">
				<stop  offset="0" style="stop-color:#0C2158"/>
				<stop  offset="0.3385" style="stop-color:#2B4074"/>
				<stop  offset="1" style="stop-color:#7187B4"/>
			</linearGradient>
			<path id="XMLID_5_" class="st3" d="M129.663,31.626c-4.114-0.004-8.262,2.644-8.337,7.94
				c-0.155,11.383-0.394,22.759-0.682,34.134c-0.174,6.69,0.572,15.58-0.049,23.732c-4.637-10.247-7.243-23.065-9.879-31.751
				c-2.519-8.296-14.955-6.75-15.133,2.046c-0.163,8.247-0.413,16.433-0.913,24.592c-1.155-4.299-2.311-8.599-3.462-12.898
				c-3.087-11.485-6.084-22.993-9.368-34.422c0.087-0.83-0.057-1.742-0.507-2.69c-0.371-0.773-0.739-1.546-1.102-2.315
				c-2.565-5.383-10.285-1.42-9.178,3.868c3.822,18.338,8.307,36.543,12.553,54.787c2.038,8.743,1.777,25.706,11.224,30.088
				c3.849,1.784,9.186,0.58,10.25-4.174c1.246-5.576,2.205-11.186,2.958-16.819c2.682,5.394,5.966,10.167,10.144,13.671
				c3.898,3.273,9.724,3.106,12.519-1.614c6.133-10.349,5.36-21.944,5.849-33.691c0.64-15.512,1.015-31.02,1.231-46.544
				C137.853,34.274,133.777,31.626,129.663,31.626z M221.925,36.058c3.197-5.826-1.424-10.667-6.398-10.667
				c-2.235,0-4.542,0.977-6.246,3.28c-3.807,5.167-9.591,10.273-13.929,15.932c-4.64-4.784-9.232-9.622-13.815-14.463
				c-4.25-4.493-10.186,2-6.606,6.603l1.421,1.83c0.174,0.22,0.352,0.413,0.538,0.583c4.364,5.379,8.72,10.769,12.993,16.22
				c-0.182,0.852-0.307,1.72-0.368,2.606c-1.042,15.955,2.716,33.634,4.004,49.57c0.871,10.834,17.982,10.8,16.925,0
				c-1.341-13.77-2.686-27.539-4.027-41.309c-0.053-0.534-0.099-1.038-0.136-1.515c0.348-0.379,0.667-0.818,0.947-1.326
				C212.197,54.324,216.944,45.127,221.925,36.058z M62.365,71.605c-9.349-0.102-6.246-6.879-6.474-14.023
				c-0.178-5.572-1.648-10.027-3.818-15.126c-0.879-2.061-2.697-2.943-4.614-2.943c-3.189,0-6.64,2.44-6.459,5.94
				c0.386,7.303,0.686,14.603,0.905,21.906c-0.201,2.477-0.235,4.879,0.186,7.076c0.004,0.205,0.008,0.409,0.011,0.617
				c-3.64,0.572-7.281,1.11-10.932,1.621c-0.208-6.133-0.621-12.277-1.402-18.44c-0.326-2.606-4.174-2.788-4.205,0
				c-0.068,6.315-0.026,12.739-0.049,19.202c-0.508,0.064-1.019,0.133-1.53,0.197c-5.655,0.538-11.296,1.178-16.94,1.928
				c-7.144,0.951-7.466,12.228,0,11.497c5.182-0.508,10.353-1.076,15.512-1.708c-0.114,2.25-0.227,4.5-0.341,6.747
				c-3.693,1.045-7.356,2.182-10.963,3.28c-2.356,0.667-4.705,1.36-7.053,2.076c-7.345,2.246-4.273,13.664,3.189,11.557
				c1.64-0.462,3.318-0.97,5.019-1.492c3.049-0.89,6.102-1.746,9.167-2.568c-0.322,6.493-0.644,12.989-0.962,19.482
				c-0.349,7.038,11.288,7.057,10.944,0c0.443-7.444,0.89-14.883,1.33-22.327c2.496-0.587,4.993-1.144,7.5-1.671
				c0.303,8.311,0.765,16.599,1.394,24.899c0.572,7.561,11.618,7.728,11.879,0c0.311-9.159,0.492-18.315,0.542-27.467
				c2.439-0.39,4.886-0.75,7.337-1.072c8.894-1.178,7.345-13.811-1.655-12.25c-1.902,0.33-3.796,0.667-5.69,1.011
				c-0.011-1.625-0.027-3.254-0.046-4.879c3.25-0.564,6.5-1.152,9.747-1.765C70.407,81.682,68.691,71.677,62.365,71.605z
				 M40.148,92.303c-2.163,0.242-4.333,0.583-6.508,1.004c0.106-1.822,0.212-3.64,0.318-5.462c2.78-0.39,5.557-0.799,8.33-1.227
				c0.019,1.746,0.03,3.489,0.038,5.235C41.599,92,40.872,92.152,40.148,92.303z M183.406,88.089c0.001-0.053,0.01-0.1,0.01-0.153
				c0-1.509-0.542-2.962-1.424-4.185c-2.16-6.591-4.344-13.174-6.478-19.767c-3.303-10.197-5.512-21.27-13.691-28.725
				c-1.352-1.239-2.947-1.796-4.5-1.796c-3.292,0-6.386,2.511-6.572,6.379c-0.845,17.826-4.155,35.163-6.995,52.585
				c-0.092,0.332-0.148,0.67-0.162,1.007c-1.194,7.374-2.296,14.766-3.078,22.218c-0.333,3.152,4.75,4.519,6.061,1.64
				c3.134-6.893,5.465-14.115,7.329-21.509c2.124-0.231,4.249-0.45,6.376-0.662c1.818-0.183,5.664-0.997,8.678-1.133
				c1.895,6.622,3.832,13.232,5.922,19.789c3.072,9.622,18.092,5.61,15.22-4.197C187.997,102.382,185.725,95.228,183.406,88.089z
				 M158.964,85.394c-0.976,0.268-1.942,0.556-2.905,0.852c1.617-8.027,2.849-16.177,4.076-24.266
				c1.371,4.864,2.492,9.811,3.837,14.489c0.713,2.478,1.416,4.96,2.12,7.441C163.598,84.469,161.011,84.833,158.964,85.394z"/>
		</g>
	</g>
</g>
</svg>