<!-- Generator: Adobe Illustrator 21.1.0, SVG Export Plug-In  -->
<svg version="1.1"
	 xmlns="http://www.w3.org/2000/svg" xmlns:xlink="http://www.w3.org/1999/xlink" xmlns:a="http://ns.adobe.com/AdobeSVGViewerExtensions/3.0/"
	 x="0px" y="0px" width="33.564px" height="33.565px" viewBox="0 0 33.564 33.565"
	 style="enable-background:new 0 0 33.564 33.565;" xml:space="preserve">
<style type="text/css">
	.st0{fill:#ABAAB0;}
	.st1{fill:#FFFFFF;}
</style>
<defs>
</defs>
<g id="XMLID_1_">
	<circle id="XMLID_5_" class="st0" cx="16.782" cy="16.783" r="16.782"/>
	<path id="XMLID_2_" class="st1" d="M26.523,12.638c0,0-0.193-1.429-0.788-2.057c-0.756-0.825-1.603-0.829-1.993-0.877
		c-2.783-0.208-6.955-0.208-6.955-0.208h-0.009c0,0-4.174,0-6.954,0.208c-0.39,0.048-1.236,0.053-1.993,0.877
		c-0.595,0.628-0.789,2.059-0.789,2.059s-0.198,1.674-0.198,3.354v0.202v1.37c0,1.679,0.198,3.356,0.198,3.356
		s0.195,1.43,0.789,2.057c0.757,0.825,1.752,0.799,2.192,0.884c1.591,0.16,6.76,0.211,6.76,0.211s4.176-0.009,6.959-0.218
		c0.39-0.048,1.237-0.053,1.993-0.877c0.595-0.628,0.788-2.057,0.788-2.057s0.199-1.677,0.199-3.356v-1.283v-0.288
		C26.722,14.314,26.523,12.638,26.523,12.638z M20.099,16.571l-5.368,2.9l-0.002-4.465v-1.358l2.421,1.319L20.099,16.571z"/>
</g>
</svg>