<!-- Generator: Adobe Illustrator 21.1.0, SVG Export Plug-In  -->
<svg version="1.1"
	 xmlns="http://www.w3.org/2000/svg" xmlns:xlink="http://www.w3.org/1999/xlink" xmlns:a="http://ns.adobe.com/AdobeSVGViewerExtensions/3.0/"
	 x="0px" y="0px" width="109.481px" height="38.963px" viewBox="0 0 109.481 38.963"
	 style="enable-background:new 0 0 109.481 38.963;" xml:space="preserve">
<style type="text/css">
	.st0{fill:#FFFFFF;}
</style>
<defs>
</defs>
<g>
	<path class="st0" d="M0,32.969l5.938-8.482c2.828,2.714,7.068,4.863,12.158,4.863c2.149,0,4.185-0.565,4.185-2.036
		c0-3.619-21.036,0.057-21.036-14.815C1.244,6.107,6.56,0,16.908,0c6.164,0,11.706,1.754,16.003,5.26l-6.107,8.086
		c-3.28-2.488-7.521-3.731-11.084-3.731c-2.262,0-2.884,0.734-2.884,1.696c0,3.562,20.979,0.509,20.979,14.533
		c0,8.312-6.164,13.119-16.286,13.119C9.5,38.963,4.015,36.588,0,32.969z"/>
	<path class="st0" d="M34.666,32.969l5.938-8.482c2.827,2.714,7.068,4.863,12.158,4.863c2.148,0,4.185-0.565,4.185-2.036
		c0-3.619-21.036,0.057-21.036-14.815C35.91,6.107,41.226,0,51.574,0c6.164,0,11.706,1.754,16.003,5.26l-6.107,8.086
		c-3.28-2.488-7.521-3.731-11.083-3.731c-2.262,0-2.884,0.734-2.884,1.696c0,3.562,20.98,0.509,20.98,14.533
		c0,8.312-6.164,13.119-16.286,13.119C44.166,38.963,38.681,36.588,34.666,32.969z"/>
	<path class="st0" d="M72.216,22.79V0.566h11.592v21.827c0,3.619,2.375,6.504,7.069,6.504c4.637,0,7.012-2.885,7.012-6.504V0.566
		h11.593v22.167c0,9.387-5.881,16.229-18.604,16.229S72.216,32.12,72.216,22.79z"/>
</g>
</svg>